<svg xmlns="http://www.w3.org/2000/svg" width="244.55" height="36.66" viewBox="0 0 244.55 36.66"><g transform="translate(-530.712 -331.221)"><path d="M594.834,355.833c.249-.1.449-.18.653-.258.1-.038.2-.072.3-.1s.22,0,.267-.052c.124-.141.207-.308.448-.23.029.008.1-.117.2-.241.072.065.192.126.248.228.11.2-.025.334-.173.462-.207.187-.394.4-.584.591a2.557,2.557,0,0,0,.2.216c.034.029.1.056.128.042.213-.12.419-.257.634-.374a.842.842,0,0,1,.241-.049c.019.025.039.049.057.077-.17.192-.35.376-.507.578a.732.732,0,0,0-.173.333c-.032.216-.112.349-.359.32a1.062,1.062,0,0,1-.438.651c-.141.089-.187.354-.231.55-.039.163,0,.323-.188.448-.1.065-.1.274-.14.419-.027.091-.042.189-.067.284a1.967,1.967,0,0,1-.162.43c-.253.4-.541.788-.79,1.2-.183.292-.314.617-.5.908a1.23,1.23,0,0,1-.382.353c-.1.293-.379.424-.6.608a2.988,2.988,0,0,0-.717.691,1.19,1.19,0,0,1-.654.429,2.011,2.011,0,0,0-.907.43c-.1.1-.285.13-.366.239-.168.228-.64.028-.61.482a.6.6,0,0,0-.6.276,2.808,2.808,0,0,1-.5.351c-.055.037-.074.12-.1.182-.064.123-.057.3-.267.286-.046,0-.1.068-.143.1-.131.1-.26.2-.441.078-.042-.033-.143,0-.2.029-.153.078-.295.189-.451.258a5.09,5.09,0,0,1-.67.273c-.226.074-.462.109-.69.166-.1.025-.211.072-.342.116,0-.005-.027-.056-.063-.134-.033.055-.061.1-.091.143-.027-.035-.051-.064-.055-.07a.847.847,0,0,1-.267.1c-.638-.011-1.275-.031-1.915-.055-.053,0-.1-.067-.157-.07-.134-.013-.3-.06-.4,0-.142.091-.217.116-.325-.035a.325.325,0,0,0-.543.076c-.023-.052-.038-.117-.054-.117-.346-.012-.452-.5-.872-.406a2.575,2.575,0,0,1-.816-.04,1.131,1.131,0,0,1-.237-.115c-.035.014-.112.308-.25,0-.022-.042-.164-.036-.246-.046a.512.512,0,0,1-.32-.13,1.265,1.265,0,0,0-1.091-.353.634.634,0,0,0-.163.083c-.217-.076-.375-.249-.61-.336s-.527-.027-.645-.152c-.239-.241-.591-.029-.812-.3a.668.668,0,0,0-.531-.125.221.221,0,0,1-.181-.105c-.115-.261-.213-.137-.306-.067a2,2,0,0,0-.481-.076.647.647,0,0,1-.619-.334c-.016-.024-.057-.053-.076-.048-.3.1-.52-.158-.8-.179a.485.485,0,0,1-.25-.156.885.885,0,0,0-.577-.179c-.036,0-.072-.107-.128-.111-.132-.063-.27-.131-.412-.2-.1.171-.148.17-.361-.118-.044.093-.077.175-.1.235-.168-.123-.295-.222-.409-.31-.02.033-.055.087-.091.138-.042-.063-.09-.123-.133-.185-.565-.28-1.135-.57-1.717-.855-.064.091-.1.258-.28-.01-.152-.234-.469-.362-.63-.6a1.9,1.9,0,0,0-.285-.432,5.147,5.147,0,0,1-.577-.656,4.9,4.9,0,0,1-.462-.7c-.265-.513-.526-1.026-.738-1.554-.221-.553-.387-1.133-.559-1.7-.062-.218-.085-.444-.134-.668a.224.224,0,0,0-.048-.121c-.14-.115-.163-.211.02-.253a3.436,3.436,0,0,1-.121-.337,2.434,2.434,0,0,1-.091-.345.409.409,0,0,1-.006-.21,4.871,4.871,0,0,0,.072-1.075c.029-.289-.164-.567.011-.861.048-.088.011-.232.014-.348a5.023,5.023,0,0,1,.1-1.091c.138-.6.4-1.168.494-1.785a.448.448,0,0,1,.181-.237,1.8,1.8,0,0,1,.3-.97,8.06,8.06,0,0,0,.322-1.023c.048-.145.131-.275.171-.416.061-.243.1-.487.155-.732a.318.318,0,0,1,.055-.109,3.511,3.511,0,0,0,.366-.57c.084-.208.065-.45.13-.668a1.388,1.388,0,0,1,.244-.331c-.045-.3-.278-.616.021-.928-.1-.144-.16-.313-.393-.121-.136.119-.372.109-.548.184a4.376,4.376,0,0,0-.478.271c-.014.012-.023.035-.036.036-.211.057-.424.1-.626.177-.306.116-.6.253-.907.379a.575.575,0,0,1-.218.048c-.469-.015-.932-.038-1.4-.048a.519.519,0,0,0-.252.067c-.149.085-.209.354-.482.222-.043-.021-.11.2-.3.215-.143.013-.262.211-.41.278a2.286,2.286,0,0,1-.627.182,1.578,1.578,0,0,0-.78.256c-.062.05-.175.024-.221.025-.278.32-.35.73-.654,1.02a2.811,2.811,0,0,0-.408.749.39.39,0,0,0-.446.3c-.027.1-.248.129-.38.2a.2.2,0,0,0-.081.06,10,10,0,0,1-.721.923.787.787,0,0,0-.182.474,1.127,1.127,0,0,1-.341.824c-.239.312-.46.634-.7.936-.168.2-.384.37-.537.578a4.7,4.7,0,0,0-.229.517c-.107.193-.245.374-.364.562-.13.208-.26.421-.387.629-.044.077-.084.156-.128.233-.1.185-.206.369-.305.55a6.667,6.667,0,0,1-.349.682,2.665,2.665,0,0,1-.417.4c-.363.02-.363.02-.378.411-.3.257-.673.4-.888.75a.474.474,0,0,1-.346.136c-.167.007-.229.087-.334.2-.147.164-.092.524-.45.473-.137.263-.368.3-.636.338-.165.02-.306.214-.467.323a6.543,6.543,0,0,1-.8.533c-.074.039-.246-.113-.382-.179-.2.243-.321.7-.869.523.007.175-.269.289-.06.411-.177.133-.346.26-.514.387-.014.008-.031.029-.039.028-.365-.069-.421.28-.611.443a.24.24,0,0,1-.139.049.548.548,0,0,0-.5.456c-.017.179-.1.182-.246.2-.339.041-.677.105-1.016.169a.279.279,0,0,0-.136.12c-.137.228-.271.276-.439.164a3.4,3.4,0,0,1-.206.451,1.37,1.37,0,0,1-.278-.092s0,.055-.025.064a3.317,3.317,0,0,0-.558.205c-.282.169-.637.138-.894.37a.361.361,0,0,1-.267.046.374.374,0,0,0-.382.109c-.023.021-.046.055-.07.061-.338.055-.677.106-1.016.169a1.762,1.762,0,0,0-.222.11.548.548,0,0,1-.2.046c-.216.009-.445-.027-.624.153a.063.063,0,0,1-.025.005c-.389.04-.778.1-1.174.1-.143,0-.293-.128-.424-.188-.115.164-.194.276-.271.389a.544.544,0,0,0-.066-.027c-.011-.1-.026-.2-.038-.3-.181-.007-.368-.018-.548-.027a.445.445,0,0,1-.005.072.974.974,0,0,0-.073-.112c-.13.056-.254.125-.378.191a1.1,1.1,0,0,1,.126.2.777.777,0,0,1,.027.2c-.022.016-.043.028-.063.04-.129-.143-.261-.284-.42-.453-.081-.035-.221-.088-.368-.144-.008.036-.021.106-.034.168-.132-.076-.271-.155-.406-.235-.029-.02-.061-.062-.055-.087.081-.294-.141-.231-.3-.257a2,2,0,0,1-.72-.321.33.33,0,0,0-.153-.015.921.921,0,0,1-.786-.475c-.172-.265-.307-.552-.486-.879-.1,0-.23.008-.309-.261-.061-.216-.391-.352-.6-.526a.844.844,0,0,0-.061.059c0-.088-.007-.176-.011-.261-.314-.095-.321-.113-.194-.479.29-.1.564-.194.842-.282.03-.014.065-.039.1-.033.392.089.6-.191.846-.406.068-.061.185-.184.278.005a.171.171,0,0,0,.158.059c.418-.151.833-.306,1.242-.478.136-.059.239-.2.374-.244.451-.148.917-.266,1.391-.405,0,0,.017-.05.037-.1l.273.148c.076-.051.181-.141.3-.216.067-.04.191-.1.229-.069.222.16.46-.123.7.049.06.044.3-.136.445-.24a1.989,1.989,0,0,1,.724-.313c.2-.057.308.047.46.042.2-.01.407,0,.608-.017.046-.005.078-.119.132-.171a2.278,2.278,0,0,1,.278-.247c.025-.014.1.035.19.074-.03-.088-.055-.172-.088-.265a2.337,2.337,0,0,0,.387-.2.253.253,0,0,1,.329,0c.047.024.137-.032.2-.061a1.452,1.452,0,0,0,.184-.092,1.184,1.184,0,0,0,.222-.151.72.72,0,0,1,.323-.192,1.034,1.034,0,0,0,.506-.385.669.669,0,0,1,.52-.293,1.491,1.491,0,0,0,.511-.22c.2-.116.379-.257.569-.387.213-.153.425-.317.645-.458a.767.767,0,0,1,.327-.162c.243,0,.209-.213.321-.287.19-.1.377-.2.567-.307a4.092,4.092,0,0,1,.689-.429,1.959,1.959,0,0,1,.565-.13c.118,0,.233-.148.374-.239-.01-.052-.027-.132-.032-.149.235-.186.429-.363.638-.506.147-.1.322-.155.464-.257a1.529,1.529,0,0,0,.309-.307c.125-.146.232-.312.464-.285.033,0,.093-.012.1-.027.115-.331.424-.478.654-.685a6,6,0,0,1,1.14-1.047c.036-.024.036-.116.059-.185.253.028.386-.149.521-.334a3.8,3.8,0,0,1,.249-.3c.028-.029.092-.056.092-.081.007-.357.33-.4.534-.57a1.97,1.97,0,0,0,.338-.527.532.532,0,0,1,.353-.321.765.765,0,0,0,.376-.317c.151-.215.267-.46.407-.7-.28-.3-.685-.128-1.011-.26-.021-.012-.072-.01-.078,0-.128.29-.385.13-.58.145a2.354,2.354,0,0,0-.812.284,2.173,2.173,0,0,1-.58.151c-.185.025-.383-.007-.569.008-.078.01-.14.093-.222.112a1.232,1.232,0,0,1-.385.043.563.563,0,0,0-.535.237,2.267,2.267,0,0,1-.522.475c-.309.181-.653.308-.98.46-.015-.023-.029-.046-.046-.069-.006.069-.015.136-.016.141-.2.025-.386.046-.567.056-.046,0-.095-.061-.145-.07-.183-.025-.383-.128-.524.091a.022.022,0,0,1-.016.016c-.229.063-.46.116-.685.19a2.622,2.622,0,0,0-.484.2,1.411,1.411,0,0,1-.649.291c-.071.006-.126.113-.2.138a2.008,2.008,0,0,0-.512.134c-.346.254-.9-.028-1.159.446-.016.029-.093.029-.143.029-.2,0-.4.01-.6,0-.056,0-.109-.07-.165-.106-.089-.05-.173-.218-.281,0-.016.04-.116.056-.177.056-.325.007-.65.014-.975,0-.065,0-.128-.07-.194-.1-.036-.024-.085-.061-.108-.052-.264.141-.5-.087-.758-.085-.179,0-.361-.236-.565-.385a.618.618,0,0,1-.064.072c-.239-.243-.473-.476-.7-.724-.037-.036-.01-.123-.021-.186-.052-.313-.056-.657-.46-.771-.042-.014-.082-.14-.072-.207s.072-.141.068-.207c.019-.128.047-.257.054-.387a1.082,1.082,0,0,0-.027-.317c-.07-.288-.4-.52-.164-.875a.9.9,0,0,0,.11-.37,1,1,0,0,1,.316-.527c.082-.093.239-.12.365-.18.093-.038.19-.076.286-.117.008,0,.014-.017.019-.017.269-.044.527-.1.8-.125.059-.01.135.081.175.106.094-.021.175-.046.259-.061.123-.016.243-.037.366-.045.078-.005.181-.018.233.024a.9.9,0,0,0,.84.134,4.233,4.233,0,0,1,.632-.108,3.6,3.6,0,0,0,.65-.014c.183-.053.343-.172.559-.121a2.358,2.358,0,0,0,.457.025c.222,0,.45.012.675,0,.1-.007.19-.091.292-.108a2.184,2.184,0,0,1,.477-.048c.257.005.511.048.769.045a1.4,1.4,0,0,0,.377-.117c.007.007.044.052.077.1a.251.251,0,0,1,.048-.01,1.164,1.164,0,0,1,.357-.121,14.528,14.528,0,0,0,2.362.011,3.434,3.434,0,0,0,1-.095c.262-.11.586,0,.8-.269.05-.063.265.017.405.017.177,0,.387.108.509-.132,0,0,.031,0,.048.013.374.1.672-.169,1.017-.206.056-.008.106-.075.162-.1a2.414,2.414,0,0,1,.76-.218c.271-.049.644.046.824-.3.016-.029.1-.012.153-.029.083-.031.158-.072.241-.11.038-.018.1-.061.115-.048.286.207.429-.092.63-.17a2.379,2.379,0,0,1,.284-.073,2.594,2.594,0,0,0,.833-.223c.174-.115.5-.194.415-.6-.041-.19.158-.434.237-.659.046-.128.072-.265.11-.4.085-.328.175-.655.258-.985.028-.111.038-.224.059-.351a.993.993,0,0,0,.11-.3c.012-.372-.014-.747.01-1.118.03-.5.1-.994.14-1.493a.9.9,0,0,0-.1-.3,4.22,4.22,0,0,1-.217-1.332,3.135,3.135,0,0,0-.046-.363c0-.052-.018-.126.011-.157a.768.768,0,0,0,.122-.366c.033-.147.24-.249.368-.379.091-.093.168-.2.265-.291s.216-.116.268-.206c.175-.288.5-.313.763-.426a1.8,1.8,0,0,1,.694-.044c.227,0,.456.052.681.039.115-.008.222-.109.327-.162.134.237.41.155.638.22a1.3,1.3,0,0,0,.844-.038c.08-.029.23.057.317.126.173.138.29.115.376-.089a5.337,5.337,0,0,0,.46.456.407.407,0,0,0,.325.062c.169-.055.211.025.316.132.263.26.58.458.848.709a1.42,1.42,0,0,1,.61.984,3.023,3.023,0,0,0,.164.557,2.95,2.95,0,0,1,.037.475c0,.038,0,.077,0,.115.006.022.05.042.048.063a9.392,9.392,0,0,1-.179,1.08c-.074.259-.285.483-.119.79-.065.031-.155.046-.162.083-.061.292-.365.422-.456.672-.076.188-.147.3-.348.344-.044.012-.11.108-.1.143.062.2-.04.32-.2.436.314-.012.6.157.916-.078.191-.142.516-.1.782-.143.06-.011.137.013.183-.016a1.125,1.125,0,0,1,.676-.152c.049,0,.106-.082.177-.14.04.028.1.076.161.117a.453.453,0,0,1-.005-.066,3.628,3.628,0,0,0,.646-.027,9.168,9.168,0,0,1,.946-.3c.261-.035.46-.252.65-.257.267-.011.386-.213.6-.249a1.618,1.618,0,0,1,.377.027.742.742,0,0,1,.539-.32c.166-.031.377.074.519-.172.064-.1.344-.076.518-.132a1.58,1.58,0,0,0,.294-.2c.207.349.567.1.857.186a4.687,4.687,0,0,1,.657.293,2.306,2.306,0,0,1,.366.214.659.659,0,0,1,.224.24,1.142,1.142,0,0,1,.046.808,1.062,1.062,0,0,0,.174.883c.037.052.014.162-.01.239a3.068,3.068,0,0,1-.166.357c-.033.005-.128.016-.171.023-.136.142-.244.258-.353.379h.029c-.12.237-.237.481-.362.713a.183.183,0,0,1-.128.087c-.209-.017-.26.144-.3.284a.973.973,0,0,1-.5.541,1,1,0,0,0-.32.284c-.164.187-.321.381-.475.577a3.122,3.122,0,0,0-.374.474c-.09.162-.118.353-.368.348-.043,0-.095.128-.127.2a2.791,2.791,0,0,0-.083.326c-.07-.1-.1-.161-.136-.218a1.327,1.327,0,0,1-.426,1.04,1.385,1.385,0,0,0-.4.873.885.885,0,0,1-.25.462,2.109,2.109,0,0,0-.436,1.077c-.039.2.005.417-.014.623a1.876,1.876,0,0,1-.116.386c.368.2-.106.4-.078.65.053.052.22.039.064.244-.135.175-.1.487-.121.744-.016.134,0,.271-.014.409a3.051,3.051,0,0,1-.056.413,5.664,5.664,0,0,0-.125.559,6.81,6.81,0,0,0,.035.79c0,.05.046.115.025.148-.2.348-.075.724-.079,1.084a4.076,4.076,0,0,0,.252,1.245c.1.321.274.626.359.963a3.028,3.028,0,0,0,.64.964,5.155,5.155,0,0,0,.518.489c0,.01.005.1.005.151a5.867,5.867,0,0,0,.7.522c.264.134.374.458.711.506.149.024.27.207.421.3a.747.747,0,0,0,.28.064c.115.031.229.065.345.093s.222.023.328.055c.146.043.307.17.435.135a.954.954,0,0,1,.6.055c.059.022.16-.105.25-.12a.568.568,0,0,1,.314.028c.11.055.161.117.241-.042.018-.042.226-.017.342.012a1.753,1.753,0,0,1,.3.138c.057.024.143.02.171.059.147.221.225.093.3-.061.17.289.353.295.577.044.055.171.147.148.275.066a.293.293,0,0,1,.215-.031c.124.043.232.145.355.162a1.335,1.335,0,0,0,1.1-.175l.072.158c.149-.091.286-.172.423-.256a.688.688,0,0,0,.694.219,1.229,1.229,0,0,1,.511-.044c.365.055.65-.161.981-.224.2-.04.429-.027.607-.065.394-.09.8.145,1.172-.1.126-.081.341-.011.5-.056.267-.072.529-.185.792-.277a.145.145,0,0,1,.1-.01c.256.164.5-.029.761-.008.1.008.2-.084.31-.1.269-.027.539-.053.806-.053a.761.761,0,0,0,.612-.138c.136-.119.411-.074.584-.169a.591.591,0,0,1,.555-.039c.125.041.306-.077.46-.134.1-.032.19-.119.282-.11.412.014.69-.269,1.017-.442a1.781,1.781,0,0,1,.537-.085,1.88,1.88,0,0,0,.188-.07c.185-.068.378-.123.558-.2.108-.046.194-.136.3-.179.224-.1.473-.158.687-.28.316-.18.714-.151,1-.449.124-.13.387-.12.58-.2s.443-.1.49-.284" transform="translate(0 -0.203)" fill="#fff"/><path d="M640.832,338.339c-.072-.2-.155-.426-.241-.654a.085.085,0,1,0-.085-.059c-.089-.038-.312.036-.142-.221a3.376,3.376,0,0,0,.248-.7.313.313,0,0,1,.349-.247c.074,0,.156-.073.234-.112.141-.069.286-.138.432-.206.037-.018.078-.047.121-.068a1.087,1.087,0,0,1,.323-.137c.158-.2.235-.208.432-.007l.131-.153c.084.149.168.249.362.213.132-.021.308-.1.4.113.01.027.2-.018.3-.042s.233-.1.251-.074c.183.254.454.1.677.151.044.009.12-.007.13.016.17.337.259.078.317,0,.216.059.4.1.578.151.035.009.073.009.1.031.174.168.295.091.416-.143.248.46.569.113.85.1a.483.483,0,0,1,.341.089c.1,0,.213-.035.291,0a1.819,1.819,0,0,0,.583.084c.181.029.363.148.538.13a.863.863,0,0,1,.539.128,1.554,1.554,0,0,0,.548.137c.061.007.131-.1.145-.1.263.02.49.057.714.059.353,0,.709-.01,1.056-.033a5.913,5.913,0,0,0,.615-.1,2.192,2.192,0,0,0-.222-.336c-.136-.138-.186-.253.065-.4-.269-.014-.278-.175-.368-.293a1.553,1.553,0,0,1-.307-.711,3.463,3.463,0,0,1-.029-.526.607.607,0,0,0-.211-.567c.055-.1.2-.26.166-.323-.155-.286.056-.538.027-.8-.059-.5.31-.784.6-1.093.031-.033.143,0,.21.014.254.072.482.092.595-.219a.217.217,0,0,1,.145-.1c.235-.025.471-.048.7-.053.059,0,.115.07.181.1.029.018.078.036.1.021.237-.14.407.027.6.115a.6.6,0,0,0,.282.082.818.818,0,0,1,.638.256c.042.04.108.049.153.09a2.3,2.3,0,0,1,.715.9c.02.046.1.067.139.11s.093.125.078.166c-.08.241.087.4.148.594a2.109,2.109,0,0,1-.039.82c-.025.253-.093.5-.115.756-.008.088.065.184.1.276.015.029.047.055.059.088.137.407.22.441.666.4.417-.038.84-.02,1.259-.038a1.455,1.455,0,0,0,.346-.134c.093.211.269.054.455.031a7.358,7.358,0,0,1,1.515-.077c.25.021.266-.138.344-.23a2.052,2.052,0,0,0,.173-.439c.132-.281.132-.383-.024-.576.046-.155.082-.3.134-.433.032-.076.1-.133.145-.207s.1-.206.07-.228c-.135-.121-.068-.286-.129-.417a.076.076,0,0,0-.052-.036c.112-.222.22-.449.338-.667.035-.067.11-.112.222-.22a.618.618,0,0,1,.409-.645c.2-.076.358-.274.558-.369a1.9,1.9,0,0,1,.457-.059,2.038,2.038,0,0,0,.3-.1c.081.175.2.177.355.016a3.782,3.782,0,0,1,.69.141c.447.184.878.4,1.317.6.021.288.36.124.462.331s.292.336.384.535.226.525.143.616c-.276.3-.048.8-.443,1.02-.015.011-.018.049-.021.074-.027.207-.037.415-.078.616-.019.089-.117.157-.155.246-.136.3-.285.489-.465.537,0,.143-.013.286.2.3.024,0,.037.1.073.116a.959.959,0,0,0,.312.119c.221.024.446.02.669.029.038,0,.094.046.123.029.368-.183.742.02,1.115-.025.242-.027.49.01.732,0a1.3,1.3,0,0,0,.313-.093c.065-.025.147-.1.186-.083a1.159,1.159,0,0,0,.8-.029c.039-.008.077.018.117.018.36-.01.718-.023,1.082-.033.024,0,.051,0,.078.007.14.009.277.024.413.038.143-.08.333-.27.462-.235.226.063.408-.116.619-.023.454.19.889-.113,1.341-.057a.155.155,0,0,0,.121-.068c.067-.156.128-.105.233-.025a.68.68,0,0,0,.351.145c.208.017.423-.031.63-.01.091.01.165.133.26.172a2.176,2.176,0,0,0,.346.072c.081-.038.19-.117.218-.1a2.145,2.145,0,0,1,.527.513,1.175,1.175,0,0,1,.177,1.216,3.812,3.812,0,0,0-.179.687,1.2,1.2,0,0,0-.116.316c-.018.147.005.293-.217.288-.022,0-.048.077-.068.123a.89.89,0,0,1-.537.537c-.1.036-.168.235-.211.367-.08.23-.139.471-.2.709-.025.087-.023.181-.047.269a.84.84,0,0,1-.1.292,5.644,5.644,0,0,0-.494.6,1.158,1.158,0,0,0-.127.589c.015.277-.044.457-.337.524-.116.027-.33.575-.331.706a1.216,1.216,0,0,1-.077.374c-.064.2-.163.4-.216.606-.048.168,0,.38-.089.51a1.379,1.379,0,0,0-.121.936c.018.179-.17.258-.165.466a3.967,3.967,0,0,1-.192.951c-.02.089-.058.173-.074.265a1.784,1.784,0,0,0,0,.269c-.039.136-.076.321-.141.5-.04.127-.115.243-.164.372a.482.482,0,0,0-.048.192,1.175,1.175,0,0,1-.206.691.754.754,0,0,0-.082.94c.132.04.325-.068.387.16.011.039.129.059.2.059.2,0,.409-.027.606-.012a2.165,2.165,0,0,1,.94.162c.194.126.254.1.38-.01a.126.126,0,0,1,.1,0,2.584,2.584,0,0,0,.926.141.436.436,0,0,1,.139.081c.033.023.062.047.091.072.01-.048.022-.089.04-.151.118.036.3-.109.392.123.012.032.138.031.214.028.744-.007,1.485-.025,2.227-.025.1,0,.189.091.289.113a.321.321,0,0,0,.181-.022c.091-.038.178-.091.262-.13.023.087.044.141.063.2.05-.021.1-.045.151-.069s.119-.055.123-.054c.132.244.352.123.544.132.151.01.3.045.448.061.365.028.726.05,1.088.077.007-.02.024-.109.033-.106.072,0,.144.029.219.041a.815.815,0,0,0,.3.061c.165-.036.327-.132.494-.151.119-.013.26.1.369.075a3.742,3.742,0,0,1,1.1-.043,1.787,1.787,0,0,1,.454.152c.018-.211.182-.253.355-.133.146.1.267.133.312-.082.452.031.9.063,1.41.1a.855.855,0,0,1,.7-.117,4.44,4.44,0,0,0,1.064.012c.1-.012.194-.01.293-.019a.155.155,0,0,0,.07-.044c.045-.04.086-.123.126-.123a4.7,4.7,0,0,1,.478.029c.016,0,.031.014.05.018.063-.272.313-.2.491-.272.046-.024.08-.089.111-.126.075.062.138.153.219.165.055.013.132-.064.2-.113.022-.016.046-.078.055-.078.256.1.325-.228.544-.232a5.218,5.218,0,0,0,.59-.068.381.381,0,0,0,.1-.042c.076-.031.145-.07.22-.106.039.088.117.177.1.257-.041.368-.116.73-.179,1.088a1.527,1.527,0,0,1-.012.243c-.044.139-.116.271-.166.409a.694.694,0,0,0-.1.3,1.5,1.5,0,0,1-.39.887,1.065,1.065,0,0,0-.182.8c-.165.078-.326.153-.486.231-.047.229-.076.464-.141.694a.918.918,0,0,1-.841.949c-.1.016-.18-.025-.218.143-.051.24-.439.263-.588.059-.147.209-.237.451-.548.525-.121.027-.222.233-.364.34a.91.91,0,0,1-.265.133,5.671,5.671,0,0,0-.7.332c-.035.024-.017.151-.023.256-.186.024-.379.05-.6.076.008.023.035.064.023.076a1.627,1.627,0,0,1-.387.362,3.694,3.694,0,0,1-.672.169,1.642,1.642,0,0,0-.219.089c-.065.028-.134.1-.179.087-.245-.068-.4.145-.6.183-.025.01-.029.093-.039.14-.22-.348-.458-.384-.862-.148-.059.031-.194-.02-.258-.072-.125-.1-.181-.379-.4-.1-.023.027-.11.022-.158,0a1.079,1.079,0,0,0-.689-.113c-.01-.055-.023-.115-.034-.183-.088.027-.188.027-.245.077-.187.169-.238.106-.458-.012a1,1,0,0,0-.691-.221c-.109.016-.218.028-.267-.138-.024-.077-.182-.141-.288-.155-.2-.024-.4.022-.6-.012a5.13,5.13,0,0,1-.78-.22c-.341-.12-.606-.422-1-.432a.351.351,0,0,1-.27-.171c-.082-.246-.267-.116-.392-.116a1.627,1.627,0,0,1-.739-.25c-.022-.011-.04-.036-.058-.046-.208-.077-.494-.09-.619-.238-.241-.276-.527-.212-.815-.268a1.443,1.443,0,0,1-.608-.355,1.625,1.625,0,0,0-.416.008c-.265.071-.4-.112-.573-.237-.014-.007-.019-.038-.027-.039-.2-.057-.4-.13-.6-.168-.166-.032-.357.044-.479-.16-.032-.056-.192-.074-.267-.046-.22.092-.331-.052-.453-.166-.176-.168-.187-.171-.366.042-.07-.108-.119-.253-.215-.312s-.243-.022-.365-.039c-.085-.008-.2-.012-.243-.064a.225.225,0,0,0-.282-.077,1.463,1.463,0,0,0-.336-.153c-.168-.028-.345.012-.443-.193-.018-.035-.149-.013-.224-.017-.2-.011-.419.126-.613-.1-.069-.076-.285-.009-.422-.042-.215-.046-.422-.135-.635-.173a.7.7,0,0,0-.415.027c-.257.116-.481-.1-.747-.027a3.174,3.174,0,0,1-.756.01c-.548-.007-1.1-.015-1.642-.01-.405,0-.81.022-1.22.033-.024,0-.068-.007-.078.009-.181.331-.486.125-.731.169-.269.046-.55-.1-.823.127-.141.112-.429.035-.651.049-.26.031-.514.076-.778.1-.057,0-.122-.055-.183-.084-.171.262-.287.276-.484.055-.128-.138-.185-.061-.221.021a.845.845,0,0,0-.228-.084c-.176-.01-.437-.059-.517.033-.2.234-.436.13-.651.143-.2.013-.461.185-.6-.138a.386.386,0,0,0-.275.059c-.169.22-.3.162-.47,0a.239.239,0,0,0-.231,0,.743.743,0,0,1-.666.061.6.6,0,0,0-.629-.016c-.19-.239-.446-.1-.662-.105-.539-.007-1.078.008-1.616.032-.068,0-.13.087-.2.129-.034.024-.077.059-.112.05a1.058,1.058,0,0,1-.244-.089,1.851,1.851,0,0,1-.253.082,5.457,5.457,0,0,0-1.078.226c-.181.074-.414.068-.523.166-.221.194-.489.046-.666.155-.451.289-1.009.081-1.433.333a2.556,2.556,0,0,1-.642.179c-.116.039-.211.132-.327.166-.06.018-.147-.049-.243-.08-.072.151-.244.105-.423.067-.144-.038-.31-.106-.336.077a1.583,1.583,0,0,0-.22-.039c-.067.194-.244.116-.366.135-.155.032-.327-.043-.433.147-.015.026-.079.016-.123.029-.24.059-.476.113-.713.177a1.494,1.494,0,0,0-.22.109.516.516,0,0,1-.205.029c-.09.02-.053.309-.286.1-.068-.056-.3.076-.453.105a4.663,4.663,0,0,1-.479.052c-.049,0-.128-.023-.15,0-.174.186-.361.147-.571.082a.978.978,0,0,0-.354,0,2.2,2.2,0,0,1-.754.062c-.217-.081-.188.181-.357.139-.133-.031-.295.076-.449.113a7.786,7.786,0,0,0-.827.241c-.093.042-.19.077-.282.121s-.278-.071-.291.149c0,.02-.153.031-.234.041-.185.022-.4-.081-.532.145-.01.023-.084.02-.126.018-.3-.038-.487.162-.717.28-.177.086-.376.13-.557.207a4.946,4.946,0,0,0-.681.291,1,1,0,0,1-.619.217,12.9,12.9,0,0,0-1.613.032,1.356,1.356,0,0,1-.756-.321c-.417-.247-.447-.654-.557-1.056a1.5,1.5,0,0,1-.02-.509,9.891,9.891,0,0,0-.074-1.154.155.155,0,0,0-.078-.1c-.151-.1-.1-.237-.08-.379.021-.169.031-.345.042-.513.007-.068-.01-.154.024-.193a1.26,1.26,0,0,1,.31-.28c.17-.092.13-.169.029-.247a2.6,2.6,0,0,0,.431-.3c.05-.048.018-.181.023-.278a.587.587,0,0,0,.31-.312c.032-.081.058-.3.293-.239.053.011.155-.15.228-.241a.353.353,0,0,1,.484,0,.292.292,0,0,0,.126.068c.211.063.426.112.634.187.052.016.078.093.113.137a1.733,1.733,0,0,0,.309.1c.183.033.375.044.558.063a4.659,4.659,0,0,1,.9.065c.025.012.064-.007.1-.008.2-.02.4-.045.606-.057s.419-.013.629-.013c.313,0,.629.024.942,0a4.663,4.663,0,0,0,.625-.107v.173c.08-.121.126-.185.174-.256.1.019.2.032.314.055.017-.074.035-.144.062-.241.057.077.1.141.147.2-.018-.025-.036-.052-.055-.076a1.23,1.23,0,0,1,.2-.093,5.149,5.149,0,0,1,.662-.19c.284-.055.64.011.851-.14.359-.245.734-.109,1.08-.206a1.245,1.245,0,0,0,.707-.456.743.743,0,0,1,.065-.071c-.2-.5,0-1.067-.324-1.505.084-.527-.128-1.067.08-1.6a.456.456,0,0,1-.147-.552c.022-.064-.034-.155-.044-.233-.085-.539-.17-1.079-.236-1.618-.012-.1.073-.2.061-.293a9.03,9.03,0,0,0-.182-.943,1.067,1.067,0,0,1-.092-.58c.008-.033.02-.081,0-.105a1.025,1.025,0,0,1-.084-.914.32.32,0,0,0-.025-.23c-.1-.138-.193-.249-.059-.423.034-.04-.036-.173-.08-.249-.133-.247-.346-.457-.313-.775.007-.068-.068-.143-.1-.212a2.044,2.044,0,0,1-.123-.445c-.042-.228,0-.57-.319-.7-.02-.007-.02-.063-.022-.1-.01-.05,0-.123-.032-.151a.55.55,0,0,1-.194-.55c.018-.162-.3-.373-.461-.559a.328.328,0,0,1-.068-.112c-.14-.316-.262-.639-.414-.949-.049-.093-.176-.149-.289-.239m11.588,13.2c0-.379,0-.745,0-1.111a2.117,2.117,0,0,1,.005-.349,6.8,6.8,0,0,0,.189-1.024,3.925,3.925,0,0,1,.063-1,2.421,2.421,0,0,0,.007-.64c-.005-.169-.016-.337-.027-.5a.638.638,0,0,0-.651-.464c-.025,0-.04.042-.025.027a2.513,2.513,0,0,0-.323-.1c-.231-.038-.451.072-.687.047-.151-.018-.38-.131-.428.157,0,0-.019,0-.046,0-.031-.032-.074-.073-.078-.077a1.308,1.308,0,0,1-.232.083c-.256.01-.514,0-.773.016-.145.011-.338.138-.424.08-.221-.155-.221.188-.369.128.008.061-.005.143.028.19.134.207.046.393-.028.589a.571.571,0,0,0,0,.59.569.569,0,0,1,.068.346c-.031.326-.087.65-.121.976a3.3,3.3,0,0,1-.009.5,5.056,5.056,0,0,0-.01,1.49c0,.12,0,.256.2.211.022,0,.077.1.153.211h.677c.018-.053.038-.118.042-.128.132.038.3.113.32.083.228-.312.522-.05.815-.185-.068.116-.084.155-.11.2.056,0,.1.012.109,0a.272.272,0,0,1,.383-.168c.18.047.457.089.55-.007.224-.224.47-.117.732-.173m-1.244-12.254c0,.005,0,.057-.014.112-.243-.077-.38.175-.594.181-.092,0-.227-.011-.256.035-.168.282-.428.113-.64.147-.16.025-.325.008-.487.018-.038,0-.074.037-.108.056-.088.033-.177.1-.256.09-.353-.045-.554.1-.636.553a.219.219,0,0,1-.09.144c-.282.085-.233.291-.206.5a2.139,2.139,0,0,1,.029.573.71.71,0,0,0,.085.428.726.726,0,0,1,.018.368.445.445,0,0,0,.309.492,2.748,2.748,0,0,1,.548.149,4.44,4.44,0,0,1,.548.341.193.193,0,0,0,.1.031c.341-.027.68-.08,1.021-.08a7.105,7.105,0,0,1,.88.107c0-.027-.005-.07-.006-.116a1.815,1.815,0,0,0,.425.029c.244-.043.482-.124.726-.187.018,0,.049,0,.054-.013a5.847,5.847,0,0,0,.323-.745,2.117,2.117,0,0,0,.008-.567.242.242,0,0,0-.01-.4,3.327,3.327,0,0,0-.049-1.577c-.035-.117-.061-.233-.1-.347a1.441,1.441,0,0,0-.142-.273,1.389,1.389,0,0,0-.178-.16,1.7,1.7,0,0,1-.314.031,2.819,2.819,0,0,0-.48-.076,2.242,2.242,0,0,0-.5.159m4.929,11.838c.406-.04.747-.074,1.1-.112.022,0,.059-.023.062-.044.049-.171.175-.128.306-.131a2.847,2.847,0,0,0,.532-.088c.087-.017.162-.085.251-.1.417-.057.872.1,1.248-.212.011-.01.036,0,.056,0a.631.631,0,0,0,.5-.276,2.071,2.071,0,0,0,.184-.527,1.786,1.786,0,0,0,.056-.79c-.078-.226.027-.295.155-.429-.277-.158-.16-.426-.172-.655a.465.465,0,0,0-.2-.419.471.471,0,0,1-.147-.3c.242-.226.121-.475.064-.71-.016-.072-.143-.173-.2-.164-.255.038-.46.023-.538-.205-.115.01-.265.053-.286.02-.136-.224-.224.019-.334.029-.037,0-.066.1-.079.119-.113-.052-.207-.136-.286-.128a2.869,2.869,0,0,0-1.252.194.4.4,0,0,0-.261.429,7.954,7.954,0,0,1,.039,1.153,7.766,7.766,0,0,1-.2,1.006c-.053.237-.121.471-.17.707s-.069.49-.116.734c-.02.116-.134.254-.105.331.11.246,0,.4-.2.569m8.638-3.983a3.56,3.56,0,0,0,.072.483c.07.19-.232.413.061.57.01.007.017.053,0,.064-.087.1.021.145.048.221.075.184.189.5.11.563-.3.261.04.55-.083.827-.057.136.376.3.6.241a.48.48,0,0,1,.237.036c.057.017.1.1.148.1.3.015.594.021.892.015.151,0,.308-.078.384.133a.315.315,0,0,0,.162-.025,1.046,1.046,0,0,0,.176-.144,1.067,1.067,0,0,0,1.18.076c-.11-.181-.212-.351-.321-.522a4.285,4.285,0,0,1,.206-.652c.078-.164.042-.369.115-.475.2-.3.061-.636.175-.945a3.447,3.447,0,0,0,.025-.743.455.455,0,0,0-.384-.544,1.2,1.2,0,0,1-.25-.115c-.231-.027-.3.5-.594.218a.917.917,0,0,1-.29.105c-.077,0-.16-.069-.243-.109a1.834,1.834,0,0,1-1.456-.032c-.068.228-.265.164-.4.145-.225-.031-.375.169-.353.257.065.265-.137.211-.218.249m4.667-7.242a.734.734,0,0,0-.138-.084,2.73,2.73,0,0,0-.4-.121,2.376,2.376,0,0,0-.49-.085c-.123,0-.27.106-.366.07-.417-.17-.914.189-1.323-.19a.607.607,0,0,1-.072.083c-.017-.038-.035-.076-.063-.125-.1.244-.329.342-.442.22-.007.039-.014.08-.023.132-.04-.075-.074-.131-.122-.207-.214.317-.411.609-.6.906a.127.127,0,0,0,0,.1c.115.217-.023.4-.091.584a1.271,1.271,0,0,0-.117.344,5.7,5.7,0,0,0,.029.655,1.663,1.663,0,0,0,.06.18c.054-.1.079-.156.1-.2.13.089.256.182.394.277.039-.05.093-.106.144-.165.457.253.794.28.907.087.182.074.355.141.567.226a.136.136,0,0,1,.059-.068c.138-.061.153-.321.371-.236.14.055.272.13.409.193a2.4,2.4,0,0,0,.248.068c.089.012.2.06.22.038.132-.183.324-.144.488-.127a4.525,4.525,0,0,1,.673.162,5.138,5.138,0,0,1,.217-.67,1.527,1.527,0,0,0,.2-.919c-.021-.177.116-.375.176-.569.076-.249-.033-.5-.209-.539a3.071,3.071,0,0,1-.4-.115c-.014.012-.061.07-.113.124-.039-.065-.071-.113-.1-.162-.063.044-.127.089-.181.128m-8.606-.2a2.1,2.1,0,0,1-.292.008c-.539-.01-1.079-.039-1.618-.045-.449,0-.9.021-1.347.037a1.042,1.042,0,0,0-.262.048,2.893,2.893,0,0,1-.339.122c-.132.022-.2.025-.176.2a9.5,9.5,0,0,1,.078,1.281c0,.2.189.461-.18.61.338.028.229.259.232.414,0,.2-.013.4.181.52a.964.964,0,0,0,.449.151,5.715,5.715,0,0,0,.8-.038c.048,0,.13-.018.135-.042.037-.2.144-.078.235-.065a1.887,1.887,0,0,0,.622.031,9.975,9.975,0,0,0,.992-.327c0,.013-.011-.078.022-.1a1.936,1.936,0,0,1,.424-.175c.17-.046.187-.143.188-.3a8.2,8.2,0,0,1,.07-.848c.008-.076.041-.149.047-.222a1.825,1.825,0,0,0-.008-.267c-.006-.123-.063-.271-.012-.363.071-.148.088-.239-.025-.355a2.967,2.967,0,0,1-.216-.28" transform="translate(-32.324)" fill="#fff"/><path d="M685.951,380.071c-.1.033-.235.087-.4.148-.007.059-.011.153-.018.253-.241.035-.48.1-.587-.218-.007-.032-.1-.032-.147-.053-.133-.072-.351.06-.434-.177-.009-.033-.17-.033-.257-.021-.253.036-.379-.1-.477-.308-.025-.059-.149-.072-.235-.105A.574.574,0,0,0,682.9,379c-.219-.06-.225-.071-.106-.205-.161-.254-.315-.5-.477-.739a2.353,2.353,0,0,0-.31-.376,2.161,2.161,0,0,1-.646-.895c-.019-.061-.145-.087-.258-.149.02-.509-.5-.784-.685-1.239-.133-.321-.257-.638-.383-.955-.005-.016.012-.048.009-.049-.287-.092-.175-.411-.336-.6a.978.978,0,0,1-.123-1.083c.02-.044-.016-.111-.016-.168,0-.181.016-.36.02-.535a1,1,0,0,0-.014-.272.662.662,0,0,1,.259-.659,1.989,1.989,0,0,1,.409-.162c.068-.007.149.087.222.13.021.019.05.056.056.056.3-.2.467.222.752.152.078-.021.2.131.322.176a.617.617,0,0,0,.62.481c.166.016.492.1.462.433a4.86,4.86,0,0,1,.488-.02.651.651,0,0,1,.207.088,1.163,1.163,0,0,0,.323.106c.177.154.294.4.626.336a.434.434,0,0,1,.375.148c.19.338.451.119.681.133.017,0,.037,0,.033.049a1.743,1.743,0,0,0,.323.168c.224.053.466.046.683.116.109.035.176.187.236.252.188-.059.376-.122.577-.186.042.033.118.125.163.109.262-.076.341.188.517.263.267.11.5.3.814.232.11-.027.233-.1.271.089,0,.014.037.031.063.037.268.061.527.117.791.179.029,0,.076.016.089.038.149.258.228.065.31-.06.116.121.218.232.328.335a.215.215,0,0,0,.136.049c.292,0,.582-.009.87-.009.068,0,.176-.008.2.027.16.29.433.181.642.138.262-.052.432.151.67.168.1.007.182.246.27.378.022.041.057.1.1.108.211.038.175.176.1.256-.083.052-.176.1-.263.15s-.2.131-.3.2a.074.074,0,0,1-.028,0c-.031-.13-.121-.2-.207-.083a.37.37,0,0,0,.031.489.287.287,0,0,1,.039.056c-.11.168-.2.32-.306.458-.035.047-.1.106-.141.1-.248-.029-.357.134-.492.288a1.769,1.769,0,0,1-.333.233c-.193.141-.378.293-.552.426,0,0-.014-.035-.023-.064-.114.083-.214.153-.31.227a7.424,7.424,0,0,1-.755.589,3.883,3.883,0,0,1-.629.207c-.25.089-.486.2-.734.29-.161.061-.337.005-.492.16s-.184.115-.085.349a.638.638,0,0,0-.155.036,5.127,5.127,0,0,1-.7.273c-.088.02-.3.2-.353-.083,0-.023-.083-.04-.122-.04-.149-.005-.292.008-.441,0a2.139,2.139,0,0,1-.264-.059" transform="translate(-47.312 -12.623)" fill="#fff"/><path d="M655.637,376.6a.331.331,0,0,1-.509.1c-.026.083-.049.16-.054.183h-.562c-.018,0-.043.053-.043.053-.325-.24-.3.116-.411.23s-.258.317-.4.331c-.434.038-.661.341-.942.6a1.36,1.36,0,0,1-.273.22c-.411.224-.668.681-1.164.777-.029.005-.06.046-.078.071a1.621,1.621,0,0,1-.769.362,3.013,3.013,0,0,0-.455.3,4.466,4.466,0,0,1-.445.226c-.189.092-.378.18-.57.264a1.494,1.494,0,0,1-.5.2c-.1,0-.209-.117-.359-.071-.356.111-.693-.175-1.049-.07-.185-.241-.437-.092-.66-.13a.645.645,0,0,1-.383-.2c-.176-.232-.418-.115-.644-.166.015-.091.031-.181.044-.258-.128-.157-.428.051-.464-.245-.248.243-.366.213-.484-.119a.455.455,0,0,0-.1-.153c-.157-.166-.19-.282.071-.385.1-.038.148-.2.239-.33-.427.087-.531.036-.651-.249.147-.14.28-.268.409-.4.015-.014.039-.04.048-.039.289.1.424-.136.608-.269a.237.237,0,0,1,.1-.031c.235-.031.4-.239.591-.286.3-.082.4-.387.741-.453a4.37,4.37,0,0,0,1.065-.589c.092-.049-.042-.276.175-.2.051-.226.387-.242.372-.524,0-.039.087-.115.142-.131.3-.088.445-.351.638-.551a3.619,3.619,0,0,0,.792-1.27c.065-.182.246-.323.342-.5.16-.282.285-.584.434-.872s.214-.627.586-.76c.138-.053.205-.209.427-.169a.563.563,0,0,1,.409.175c.14.159.265.014.391-.073a.294.294,0,0,1,.2-.033,2.425,2.425,0,0,0,.325.092c.372.021.739.005,1.11.028a7.6,7.6,0,0,1,.781.122c.087.012.231-.063.218.135a2.872,2.872,0,0,0,.318.05c0,.022.005.109.032.113a2.289,2.289,0,0,1,.841.542c.218.2.406.421.637.6.045.032.055.108.094.143.1.088.2.16.3.241a.23.23,0,0,1,.046-.042,11.814,11.814,0,0,1,.384,1.173,1.352,1.352,0,0,1-.078.82,10.7,10.7,0,0,1-.615.927.165.165,0,0,1-.068.061,1.468,1.468,0,0,0-.586.341c-.1.1-.353.057-.592.083" transform="translate(-36.033 -12.682)" fill="#fff"/><path d="M742.361,331.637h15.218c6.591,0,9.925,3.571,9.925,8.434a6.9,6.9,0,0,1-3.725,6.432,7.242,7.242,0,0,1,5.1,7.1c0,5.061-3.765,8.63-9.963,8.63H742.361Zm7.844,7.139v4.864h6.473c2.119,0,2.9-.981,2.9-2.432a2.238,2.238,0,0,0-2.47-2.432Zm0,10.982v5.375h7.847c2.117,0,2.9-1.138,2.9-2.747,0-1.568-.784-2.628-2.9-2.628Z" transform="translate(-62.961 2.851)" fill="#fff"/><path d="M870.543,331.637h22.711v7.611h-14.9v5.412h12.511v7.1H878.351v10.474h-7.808Z" transform="translate(-117.993 2.851)" fill="#fff"/><path d="M831.725,354.486a12.313,12.313,0,1,0-12.3,12.634,12.426,12.426,0,0,0,6.7-1.953v1.953h5.613V354.486Zm-12.3,5.58a5,5,0,1,1,5-4.995,4.982,4.982,0,0,1-5,4.995" transform="translate(-90.758 -2.037)" fill="#fff"/></g></svg>