<?xml version="1.0" encoding="utf-8"?>
<!-- Generator: Adobe Illustrator 16.0.0, SVG Export Plug-In . SVG Version: 6.00 Build 0)  -->
<!DOCTYPE svg PUBLIC "-//W3C//DTD SVG 1.1//EN" "http://www.w3.org/Graphics/SVG/1.1/DTD/svg11.dtd">
<svg version="1.1" id="圖層_1" xmlns="http://www.w3.org/2000/svg" xmlns:xlink="http://www.w3.org/1999/xlink" x="0px" y="0px"
	 width="1444.726px" height="286.372px" viewBox="0 0 1444.726 286.372" enable-background="new 0 0 1444.726 286.372"
	 xml:space="preserve">
<g>
	<g>
		<g>
			<path fill="#FFFFFF" d="M127.776,61.643c1.124,1.285,2.408,2.248,3.853,2.89c1.124,0.643,1.766,1.124,2.087,1.445v1.766
				c-0.321,1.284-1.124,2.729-2.408,4.334c-1.927,3.21-4.174,7.705-7.063,13.645c-2.729,6.1-5.618,11.718-8.829,16.533
				C122.8,122,129.381,133.718,135.32,137.41c0.642,0,1.766-5.298,3.05-16.053c0.803-6.1,1.605-11.879,2.248-17.176
				c0.642,0.16,1.124,0.642,1.124,1.284c0.481,6.742,0.803,13.483,1.124,20.547c0.481,7.224,0.963,14.286,1.284,21.35
				c0,1.444-0.643,2.247-1.605,2.247c-10.755-2.087-20.868-13.805-30.178-35.476c-0.803-1.605-1.445-3.05-2.087-4.655
				c-0.161,0.321-0.161,0.321-0.161,0.321c-3.853,5.137-7.384,9.149-10.915,12.2c-5.297,3.852-9.311,5.778-12.2,5.778
				c-0.642,0-0.963-0.321-0.963-0.963c6.902-5.618,13.323-13.484,19.423-23.597c0.642-0.803,1.124-1.605,1.605-2.408
				c-2.889-8.187-5.779-17.818-8.347-29.055c-1.445-7.063-2.568-13.323-3.531-18.781c-7.705,0.643-14.287,1.124-19.905,1.766
				c-11.397,1.445-23.757,3.211-37.081,5.458c-10.915,2.568-16.854,3.692-17.979,3.692c-0.642,0-0.963-0.643-1.124-2.248
				c-0.481-1.766-0.802-3.21-1.124-4.173c-0.642-0.964-0.803-1.605-0.803-2.247c0.963-0.321,4.655-0.643,11.076-0.643
				c4.334,0,8.989-0.481,14.126-1.284c4.334-0.321,8.508-0.642,12.36-1.124V41.257c-4.816,0.963-9.631,1.926-14.447,3.05
				c-4.815,1.444-7.384,2.087-7.705,2.087c-0.642,0-0.963-0.643-0.963-2.087c-0.481-1.605-0.803-2.89-1.124-3.853
				c-0.481-0.803-0.642-1.444-0.642-2.087c0.321-0.16,2.086-0.321,4.976-0.321c1.926,0,4.013-0.32,6.26-0.802
				c5.618-0.482,10.113-1.124,13.484-1.767c0-5.137-0.161-9.631-0.321-13.805c0-0.481,0.321-0.803,0.963-0.803
				c1.605,0.643,4.334,1.284,7.866,1.927c0.481,0.16,0.802,0.642,0.802,1.444c-0.321,1.927-0.481,5.298-0.642,9.792
				c2.889-0.321,5.778-0.803,8.829-1.444c6.1-1.284,9.471-1.927,10.113-2.087c0.642,0.32,0.963,1.444,1.124,3.691
				c0.161,1.605,0.482,2.89,0.803,3.853c0,0.643-0.161,0.964-0.321,1.124c-0.803,0-1.766-0.16-2.729-0.481
				c-3.05,0.16-6.1,0.321-9.311,0.642c-3.21,0.321-6.26,0.482-8.829,0.803c-0.161,3.371-0.321,7.063-0.321,11.236
				c6.1-0.642,11.237-1.444,15.41-2.086c4.816-0.482,10.113-1.124,16.053-2.087c-3.853-19.905-5.779-30.499-5.779-31.623
				c0-0.643,0.321-0.963,0.963-0.963c1.605,0.481,3.05,0.963,4.655,1.284c2.408,0.642,4.173,0.963,5.297,1.123
				c0.321,0.321,0.642,0.963,0.642,1.766c-0.16,0.643-0.16,1.284-0.16,1.766v2.568c0,3.211,0.16,7.545,0.803,13.163
				c0.321,3.211,0.642,6.582,1.284,9.792c3.21-0.321,6.581-0.803,10.113-1.444c13.805-2.247,21.349-3.371,22.794-3.692
				c0.642,0.321,1.124,1.927,1.445,4.495c0.161,1.926,0.481,3.37,0.803,4.655c0,0.642-0.161,1.123-0.321,1.283
				c-0.963,0-2.087-0.16-3.371-0.481c-7.063,0.161-14.447,0.481-21.831,1.124c-3.21,0.321-6.1,0.481-8.829,0.481
				c1.605,10.113,3.853,21.028,6.742,32.586c0.963,2.89,1.766,5.458,2.729,8.026c1.766-3.211,3.21-6.1,4.494-8.829
				c4.174-7.865,6.742-15.249,7.705-22.151v-2.248l1.605-0.642C126.331,60.198,126.973,61.001,127.776,61.643z M55.38,121.679
				c-6.903,0.803-14.287,1.766-22.313,3.05c-6.581,1.284-10.273,1.926-10.915,1.926c-0.482,0-0.803-0.642-0.963-2.086
				c-0.481-1.605-0.803-2.89-0.963-3.854c-0.642-0.802-0.802-1.444-0.802-2.086c0.642-0.161,2.889-0.321,6.902-0.321
				c2.568,0,5.458-0.321,8.668-0.643c3.21-0.16,6.26-0.32,8.829-0.481c-0.321-2.889-0.642-5.778-0.963-8.668
				c-2.247,0.321-4.334,0.643-6.26,0.803c-3.692,0.963-6.26,1.444-7.866,1.444c-0.803,0-1.284-0.481-1.444-1.604
				c-0.643-0.964-1.124-1.767-1.445-2.568c-0.482-0.643-0.963-1.445-1.605-2.087l0.321-0.643c0.642,0,1.445,0,2.086-0.321
				c2.248,0,7.384-0.32,15.571-1.123c0-0.481-0.161-0.963-0.161-1.605c-0.321-1.605-0.802-3.211-1.444-4.494
				c-1.926,0.32-3.692,0.481-4.977,0.802c-0.642-0.963-2.086-4.976-4.334-12.199c-1.926-7.384-3.05-11.718-3.371-13.003
				c0.482-0.32,1.605-1.123,3.532-2.568c1.605-1.444,2.568-2.247,2.889-2.568c4.334,0,10.273-0.642,17.818-2.086
				c17.979-2.408,27.449-4.014,28.252-4.816c0.16,0.321,1.284,1.124,3.371,2.729c2.568,1.604,4.173,2.407,4.494,2.729
				c-0.16,0.963-1.444,5.779-3.692,14.769c-2.247,8.025-3.692,12.359-4.013,13.162c-0.642,0-1.926,0-3.853-0.16h-5.618
				c-0.321,0-0.481,0.16-0.803,0.16c0.963,0.161,1.927,0.321,2.89,0.482c0.481,0.16,0.803,0.642,0.803,1.283
				c-0.321,1.124-0.642,2.568-0.963,4.495c2.568-0.321,4.976-0.642,7.063-0.963l6.582-1.284c0.963,0,1.445,0.803,1.605,2.087
				c0.803,2.568,1.445,4.334,1.766,5.297c0,0.481-0.321,0.642-0.642,0.642c-5.137,0-10.916,0.161-17.336,0.482
				c-0.321,2.568-0.803,5.457-1.124,8.668c2.086-0.321,4.334-0.481,6.581-0.803c8.347-0.963,13.002-1.605,13.966-1.605
				c0.642,0.321,0.963,1.445,1.124,3.371c0.161,1.445,0.321,2.568,0.642,3.531c0,0.643-0.161,0.964-0.161,0.964
				c-0.803,0-1.605,0-2.568-0.321c-4.334,0.16-8.668,0.321-13.163,0.642c-3.371,0.321-6.421,0.481-9.15,0.481
				c0.963,1.445,3.371,3.692,7.544,6.903c3.05,2.247,6.421,4.334,9.952,6.26v0.481c-1.444,1.284-2.889,2.568-4.173,3.692
				c-2.248,2.247-3.692,3.371-4.013,3.371c-0.642,0-1.124-0.161-1.444-0.321c-0.643-0.481-2.408-3.691-5.458-9.792
				c-1.445-2.89-3.05-5.778-4.655-8.668c0-0.963,0.321-1.605,0.963-1.766C62.443,121.197,58.591,121.357,55.38,121.679z
				 M49.602,124.407c-1.766,3.692-3.692,7.063-5.779,10.113c-3.532,5.297-5.939,8.026-7.063,8.026c-0.963,0-1.445-0.161-1.445-0.482
				c-0.321-0.32-0.803-0.642-1.124-1.284c-0.642-0.963-1.605-1.926-2.729-3.21s-1.926-2.087-2.248-2.247l0.321-0.964
				c0.963,0,1.605-0.16,1.926-0.32c0.481,0,2.408-0.964,5.939-3.051c2.729-1.604,6.421-4.013,11.076-7.544L49.602,124.407z
				 M36.438,72.077c0.161,1.605,0.481,3.692,0.963,6.261c4.655-0.161,10.113-0.643,16.212-1.605c-0.16-2.568-0.16-4.977-0.16-7.224
				C43.823,70.793,38.204,71.756,36.438,72.077z M39.649,90.216c3.532,0,8.187-0.321,14.126-0.963v-7.063
				c-5.137,0.643-10.273,1.285-15.41,1.927C38.847,86.363,39.328,88.29,39.649,90.216z M50.564,94.871
				c-2.729,0.321-5.137,0.643-7.224,0.963c1.445,0.482,3.211,0.964,5.458,1.445c0.803,0,1.284,0.481,1.284,1.123
				c-0.321,0.803-0.321,1.927-0.321,3.211c5.779-0.321,10.595-0.803,14.608-1.284h0.481c0-2.568,0.161-4.655,0.321-6.581
				C61.641,94.068,56.665,94.39,50.564,94.871z M64.69,106.269c-1.284,0.16-2.408,0.321-3.692,0.321
				c-3.532,0.32-7.063,0.802-10.916,1.123c0.161,2.89,0.321,5.939,0.481,8.829c2.408-0.161,4.495-0.321,6.261-0.643
				c2.247-0.16,4.815-0.481,7.705-0.803C64.53,111.887,64.53,108.997,64.69,106.269z M74.482,74.967
				c0.481,2.086,1.124,4.013,2.087,5.618c-0.321,0.321-0.642,0.642-0.642,0.642c-0.963-0.32-1.926-0.481-2.89-0.642
				c-3.692,0.16-7.705,0.481-11.878,0.803c-0.161,2.568-0.321,4.976-0.321,7.224c4.495-0.321,9.311-0.964,14.607-1.605
				c0.321-1.284,0.963-4.174,1.927-8.668c0.802-3.854,1.284-6.903,1.284-9.15c-0.321-0.642-0.482-0.963-0.803-1.284
				c-5.137,0-10.434,0.321-16.213,0.803c-0.161,2.247-0.321,4.655-0.321,7.063c4.174-0.482,7.866-0.964,11.397-1.605
				C73.68,74.164,74.322,74.484,74.482,74.967z M126.492,34.996l0.161,0.643c-0.481,0.642-1.124,1.605-2.087,2.568
				c-0.963,1.284-1.926,2.568-2.89,3.531c-0.481,0.963-1.124,1.444-1.766,1.444c-0.481,0-0.963-0.481-1.444-1.766
				c-0.643-0.803-1.284-2.087-1.766-3.853c-1.766-4.174-3.371-8.989-4.815-14.286c0-0.963,0.802-1.605,2.408-1.605
				C118.145,29.057,122.318,33.552,126.492,34.996z"/>
			<path fill="#FFFFFF" d="M202.421,47.838c-10.273,1.927-16.052,2.89-17.016,2.89c-0.642,0-0.963-0.642-1.124-2.247
				c-0.481-1.766-0.803-3.211-1.124-4.174c-0.482-0.963-0.642-1.605-0.642-2.247c0.803-0.321,4.334-0.481,10.434-0.481
				c4.013,0,8.508-0.321,13.324-0.964c14.768-0.963,26.004-1.926,33.709-3.21c8.347-0.803,19.103-1.927,31.944-3.531
				c13.163-1.766,20.386-2.729,21.67-2.89c0.642,0.321,1.124,1.766,1.284,4.334c0.161,1.766,0.481,3.21,0.802,4.334
				c0,0.643-0.16,0.963-0.321,1.124c-0.963,0-1.926-0.161-3.05-0.481c-6.742,0.32-13.645,0.642-20.708,0.963
				c-13.805,0.642-25.202,1.444-34.191,2.247c-0.803,0.16-1.444,0.16-1.926,0.16l-16.212,18.942
				c13.163-1.284,27.931-3.371,44.625-6.261c-3.371-3.21-6.902-6.1-10.434-8.989l1.124-1.124c6.903,1.927,12.682,4.174,17.337,7.063
				c2.408,1.284,4.655,2.89,6.902,4.815c2.889,2.89,4.334,4.816,4.334,5.779c0,0.481-0.481,1.123-1.284,1.926
				c-0.803,1.284-1.445,2.248-2.087,3.05c-0.963,1.284-1.605,2.568-2.247,3.532l-0.803-0.161c-2.247-3.531-4.815-7.063-7.544-10.273
				c-0.642,0.161-1.124,0.161-1.766,0.161c-2.247,0.481-5.458,0.963-9.31,1.444c-13.965,1.766-26.647,3.692-38.044,5.939
				c-11.236,2.568-17.657,3.692-19.263,3.692c-0.963,0-1.445-0.482-1.445-1.605c-0.321-1.124-0.642-2.248-0.963-3.371
				c-0.803-1.605-1.445-2.729-2.087-3.211l0.321-1.123c0.642,0.16,1.444,0.16,2.408,0.16c3.371,0,6.902-0.321,10.755-0.642
				l13.805-18.3C216.708,45.912,209.645,46.875,202.421,47.838z M257.159,93.748c0.321,1.926,0.643,3.37,0.963,4.334l-0.642,0.642
				c-0.963-0.16-2.408-0.321-4.334-0.321c-5.458,0.321-12.2,0.964-20.547,1.927c-4.655,0.642-8.508,1.284-11.397,1.605
				c-0.963,0.32-1.766,0.481-2.408,0.481c-0.161,2.729-0.321,5.618-0.481,8.668v1.926c2.729-0.16,7.544-0.802,14.607-1.766
				c13.002-1.284,20.547-2.086,22.634-2.568c0.642,0,1.124,1.124,1.605,3.051c0.321,1.766,0.643,3.21,0.963,4.173l-0.642,0.643
				c-0.963-0.161-2.408-0.321-4.334-0.321c-5.618,0.321-12.682,0.803-21.189,1.605c-4.816,0.642-8.668,0.963-11.558,1.284
				c-1.124,0.321-1.926,0.321-2.408,0.321c-0.321,3.531-0.803,6.902-1.284,10.434c-1.927,9.311-3.692,14.126-5.297,14.126
				c-0.482,0-1.284-1.124-2.568-3.371c-1.445-1.766-2.248-2.89-2.248-3.531c0-1.284,0.642-5.137,1.605-11.237
				c0.642-5.457,1.284-11.396,1.926-17.496c0.642-7.385,1.124-15.25,1.124-23.598c-0.642-0.32-0.963-0.802-0.963-1.444
				c-0.963-1.926-1.605-3.371-2.248-4.013l0.321-0.803c3.853,0,7.384-0.16,10.273-0.643c4.495-0.32,10.113-0.803,16.694-1.604
				c5.619-0.321,12.521-1.445,20.868-3.371c4.174-0.803,6.742-1.284,7.544-1.284c0.321,0.642,0.803,1.123,1.445,1.605
				c0.963,1.123,2.408,2.247,4.013,3.37c1.605,0.803,2.408,1.445,2.408,1.927c0,0.16-0.161,0.481-0.481,0.803
				c-0.321,0.481-0.642,1.123-0.803,1.766c-0.321,0.963-0.642,3.531-0.963,7.705c0,12.199,0.16,30.82,0.642,55.861
				c0,1.605-0.481,2.408-1.444,2.408c-1.445-0.963-5.297-3.371-11.558-7.063c-3.853-2.087-7.866-4.335-12.039-6.582
				c-0.643-0.481-0.803-1.284-0.803-2.408c4.495,1.285,9.631,1.927,15.41,2.087c0.963,0,1.605-0.642,1.926-1.926V81.388
				l-1.284-1.284c-8.508,0.642-20.547,1.926-36.278,3.691c-3.05,0.481-5.458,0.803-7.223,0.803c1.444,1.124,2.408,1.927,2.729,2.568
				c0,1.766-0.16,4.495-0.321,8.348c2.729-0.321,7.544-0.964,14.447-1.927c12.521-1.284,19.905-2.247,21.992-2.729
				C256.196,90.858,256.678,91.821,257.159,93.748z M248.813,27.772l0.16,0.643c-0.481,0.803-1.124,1.766-2.087,2.729
				c-1.124,1.605-2.086,2.89-3.05,3.853c-0.642,0.963-1.284,1.445-1.926,1.445c-0.802,0-1.605-0.482-2.568-1.445
				c-1.284-0.963-2.408-2.087-3.531-3.691c-3.21-4.014-6.1-8.508-8.668-13.484c0-1.284,0.803-1.926,2.729-1.926
				C235.971,22.476,242.392,26.488,248.813,27.772z"/>
			<path fill="#FFFFFF" d="M355.081,65.978c2.247,0.963,4.334,2.087,6.26,3.37c2.568,2.248,4.013,3.532,4.013,4.174
				c0,0.481-0.481,1.124-1.284,1.927c-0.963,1.444-1.605,2.568-2.247,3.371c-0.963,1.444-1.766,2.729-2.408,3.691l-0.803-0.16
				c-5.458-7.063-12.521-13.645-21.51-19.423l2.247-2.248C345.61,62.125,350.907,63.891,355.081,65.978z M371.936,87.006
				c-2.248,10.915-4.816,21.188-7.384,30.499c-4.655,16.052-7.705,24.078-9.149,24.078c-1.284,0-1.927-0.321-2.087-0.642
				c-0.481-0.321-0.963-0.963-1.445-1.766c-0.963-0.964-2.087-2.248-3.532-4.174c-1.605-1.605-2.568-2.568-3.05-2.89l0.481-1.284
				c1.284,0,2.087-0.16,2.568-0.481c0.643,0,3.05-4.174,7.545-12.682c3.371-6.741,8.026-17.657,14.126-32.586L371.936,87.006z
				 M368.244,34.836c1.926,0.963,3.692,2.087,5.297,3.371c2.248,2.087,3.532,3.371,3.532,4.013c0,0.481-0.482,1.124-1.284,1.927
				c-0.803,1.284-1.445,2.407-2.087,3.05c-0.963,1.284-1.605,2.568-2.248,3.531l-0.802-0.16
				c-4.495-6.903-10.434-13.163-17.818-18.781l1.766-1.927C360.057,31.305,364.552,32.909,368.244,34.836z M420.253,53.136
				c0.803,0.32,1.605,0.481,2.408,0.481c0.481,0.16,0.803,0.642,0.803,1.444c-0.161,1.284-0.321,3.371-0.482,6.261
				c0.321,0,0.803-0.161,1.124-0.161c6.1-0.642,11.397-1.284,15.892-2.087l6.582-1.444c0.963,0,1.605,0.803,1.766,2.247
				c0.963,2.568,1.444,4.495,1.766,5.458c0,0.481-0.321,0.643-0.642,0.643c-7.384,0-16.374,0.642-26.968,1.604
				c-0.321,2.89-0.481,6.101-0.481,9.311c2.568-0.321,4.815-0.481,6.742-0.803c8.668-0.803,16.374-1.766,22.794-2.889l9.471-1.767
				c0.963,0,1.605,0.803,1.926,2.248c0.963,2.889,1.445,4.815,1.766,5.938c0,0.482-0.321,0.643-0.642,0.643
				c-7.544,0-16.212,0.481-25.844,1.124c0.482,0.963,1.124,1.926,1.766,2.568c0.642,1.123,0.963,1.766,0.963,2.087
				c0,0.802-0.963,1.766-2.729,2.889c-3.21,2.248-5.939,4.174-8.187,5.458c-0.642,0.481-1.124,0.803-1.444,0.963
				c2.086-0.16,4.334-0.481,6.902-0.963c7.384-1.124,11.558-1.766,12.36-1.927c0.642,0.321,0.963,1.767,1.124,4.014
				c0.161,1.605,0.481,3.05,0.802,4.013c0,0.643-0.16,0.964-0.321,1.124c-0.803,0-1.766-0.16-2.889-0.481
				c-3.853,0.16-7.705,0.321-11.558,0.642c-6.742,0.481-12.36,0.963-17.016,1.284c1.926,0.803,3.853,1.445,5.939,1.766
				c0.642,0.321,1.124,0.803,1.124,1.605c-0.481,1.284-0.803,3.692-0.963,7.063c5.619-0.321,12.36-0.964,20.226-1.766
				c9.631-0.964,14.929-1.605,15.892-1.767c0.642,0.321,0.963,1.605,1.124,3.853c0.161,1.445,0.321,2.729,0.643,3.692
				c0,0.642-0.161,0.963-0.161,1.124c-0.963,0-1.926-0.161-2.89-0.482c-4.815,0.161-9.792,0.321-14.928,0.643
				c-7.866,0.321-14.608,0.643-20.226,0.963c0,9.953-0.481,18.621-1.124,26.486c-0.642,2.568-2.087,4.014-4.013,4.014
				c-1.284,0-2.248-1.285-2.729-3.692c-0.321-5.137-0.321-11.236-0.321-18.621c0-2.407-0.161-4.976-0.161-7.544
				c-6.902,0.803-14.126,1.605-21.51,2.568c-7.545,1.284-11.718,1.766-12.521,1.766c-0.481,0-0.803-0.643-0.803-1.927
				c-0.642-1.604-0.963-3.05-1.124-4.013c-0.481-0.803-0.642-1.444-0.642-2.087c0.642-0.16,3.05-0.321,7.544-0.321
				c3.05,0,6.261-0.16,9.792-0.642c7.705-0.321,13.965-0.803,18.941-1.284c-0.16-1.605-0.321-3.211-0.481-4.977
				c-0.321-2.889-0.642-4.815-1.124-5.939c-5.297,0.803-10.916,1.766-17.015,2.729c-5.779,1.284-8.829,1.926-9.471,1.926
				s-0.963-0.642-0.963-2.087c-0.482-1.604-0.803-2.889-1.124-3.853c-0.482-0.963-0.643-1.604-0.643-2.247
				c0.482,0,2.408-0.16,5.939-0.16c2.248,0,4.816-0.321,7.705-0.803h0.803c-0.321-0.643-0.481-1.284-0.803-1.927
				c-0.481-0.642-0.963-1.444-1.444-2.247c-0.643-0.642-1.124-1.123-1.445-1.605c0-0.32,0-0.642,0.161-0.963
				c2.568-0.16,6.26-1.444,10.915-3.691c3.371-1.285,6.582-2.89,9.632-4.816c0.802,0.321,1.284,0.803,1.284,1.445
				c0,0.481-1.445,1.926-4.174,4.334c-2.568,2.247-5.779,5.297-9.471,9.149c5.779-0.481,10.434-1.124,13.805-1.766
				c1.124,0,2.408-0.16,3.692-0.481c0.642-0.643,1.284-1.284,1.926-1.927c2.087-2.087,3.853-4.173,5.297-6.26
				c1.605-1.927,3.21-4.174,4.655-6.421l0.161-0.161c-3.21,0.321-6.421,0.481-9.631,0.803c-10.113,1.124-21.831,2.729-35.155,4.815
				c-5.297,1.605-9.149,2.248-11.558,2.248c-0.802,0-1.284-0.481-1.605-1.766c-0.642-1.124-1.124-2.087-1.605-3.051
				c-0.643-0.963-1.284-1.766-1.927-2.407l0.482-0.803c0.642,0,1.445,0,2.408-0.321c3.371,0,12.2-0.642,26.486-2.247
				c5.137-0.481,9.952-0.963,14.286-1.444c0-3.211-0.16-6.101-0.16-8.989c-5.618,0.642-11.718,1.604-18.46,2.568
				c-3.692,1.284-6.421,1.766-8.026,1.766c-0.803,0-1.284-0.481-1.605-1.766c-0.481-0.964-0.963-1.927-1.444-2.729
				c-0.642-0.963-1.124-1.766-1.766-2.407l0.321-0.803c0.642,0,1.445,0,2.408-0.161c2.248,0,8.347-0.481,18.3-1.766
				c3.531-0.32,6.902-0.642,9.952-0.963c-0.321-3.05-0.481-5.779-0.642-8.348c-5.618,0.803-10.755,1.605-15.571,2.408
				c-5.458,0.963-8.668,1.605-9.952,1.605c-0.963,0-1.926-1.605-2.729-5.137c-1.284-3.211-2.729-6.902-4.334-11.076
				c-0.963-1.766-1.445-3.05-1.445-4.013c0.321-0.321,0.642-0.643,1.284-1.124c0.642-0.321,1.284-0.963,1.926-1.605
				c0.482-0.32,1.124-0.803,1.766-1.444c0.642-0.803,1.284-1.284,1.766-1.284c3.05,0,8.187-0.321,15.57-1.284
				c5.458-0.643,11.397-1.284,17.818-2.087c6.1-0.643,12.681-1.605,19.423-2.729c5.297-0.964,8.668-1.605,9.953-2.087
				c0.321,0,0.963,0.642,1.926,1.604c0.963,0.964,2.247,2.248,3.853,3.692c0.803,0.803,1.445,1.284,1.926,1.605
				c0.321,0.321,0.642,0.803,0.642,1.444c0,0.803-0.642,2.087-1.766,3.853c-1.605,3.532-3.05,7.224-4.655,10.916
				c-1.124,3.531-1.926,5.137-2.568,5.137c-0.481-0.161-1.926-0.321-4.495-0.643C435.984,52.012,427.958,52.493,420.253,53.136z
				 M403.88,38.207c-0.161-0.643-0.321-1.124-0.481-1.766c-4.816,0.642-9.471,1.123-13.966,1.766
				c0.963,4.494,2.087,8.347,3.371,11.879c4.334-0.321,8.508-0.803,12.682-1.124C404.843,45.27,404.361,41.738,403.88,38.207z
				 M425.55,33.873c-4.815,0.642-9.631,1.123-14.287,1.604c0,0.321,0.161,0.481,0.161,0.481c-0.321,0.964-0.321,2.248-0.321,4.014
				c0.16,2.89,0.321,5.618,0.321,8.347c4.976-0.32,9.792-0.802,14.287-1.123C425.711,42.06,425.55,37.726,425.55,33.873z
				 M432.774,33.23c-0.321,3.853-0.481,8.348-0.642,13.484c4.013-0.321,7.866-0.643,11.558-0.964c1.284,0,2.729-4.013,4.334-12.36
				c-0.481-0.32-0.963-0.802-1.284-1.444C442.084,32.268,437.429,32.749,432.774,33.23z"/>
			<path fill="#FFFFFF" d="M570.665,59.074c-7.063,0.964-14.286,2.248-21.991,3.532c-8.508,1.926-13.163,2.89-13.966,2.89
				c-0.642,0-0.963-0.643-1.124-2.248c-0.481-1.766-0.803-3.21-1.124-4.174c-0.642-0.963-0.803-1.766-0.803-2.407
				c0.642-0.161,3.531-0.321,8.668-0.321c3.371,0,7.063-0.321,11.076-0.963c7.545-0.481,13.966-1.124,19.263-1.766
				c-0.16-3.853-0.16-7.545-0.16-10.755c-8.668,1.444-16.855,2.889-24.56,4.173c-0.642,0-1.445-0.803-2.087-2.568
				c-0.803-1.604-1.445-2.889-2.087-3.853l0.482-0.642c8.668-0.643,17.979-1.766,28.252-3.371c0-2.89-0.161-5.618-0.161-8.026
				c-0.161-1.444-0.482-2.89-0.803-4.494c-0.321-1.445-0.642-2.89-0.803-4.174c0.161-0.321,0.482-0.481,0.803-0.803
				c0.642,0.481,2.248,0.963,4.495,1.284c4.334,0.643,6.582,1.445,6.582,2.087c0,1.284-0.161,2.408-0.482,3.371
				c-0.16,1.605-0.321,3.531-0.481,5.618c-0.16,1.444-0.16,2.729-0.16,4.013c11.878-1.604,18.62-2.729,20.386-3.21
				c0.642,0,1.766,0.642,3.21,1.766c1.926,1.605,3.531,2.729,4.655,3.531c1.124,0.481,1.766,0.963,1.766,1.605
				c0,1.605-0.481,3.211-1.445,4.977c-0.481,1.604-0.963,3.371-1.284,4.976c9.953-1.604,15.41-2.407,16.534-2.568
				c0.642,0.321,1.124,1.766,1.284,4.014c0.161,1.604,0.481,3.05,0.803,4.013c0,0.643-0.161,0.963-0.321,1.124
				c-0.963,0-1.926-0.161-2.889-0.481c-5.458,0.16-11.076,0.481-16.855,0.963h-0.321c-0.321,1.123-0.642,2.087-0.803,2.889
				c-0.481,2.568-0.963,4.655-1.284,6.261c0.321,0.963,0.481,2.087,0.481,3.05c0.161,1.605,0.482,2.89,0.803,3.853
				c0,0.643-0.161,0.964-0.321,0.964c-0.803,0-1.766,0-2.729-0.321c-3.532,0-7.063,0.16-10.595,0.481
				c-4.655,0.321-8.668,0.642-12.2,0.963v1.284c0,3.05-0.16,5.939-0.16,8.829c4.013-0.321,8.668-0.963,14.126-1.605
				c6.902-0.963,10.755-1.605,11.397-1.766c0.642,0.321,0.963,1.605,1.124,3.853c0.161,1.605,0.481,2.89,0.803,3.853
				c0,0.481-0.161,0.803-0.321,0.963c-0.803,0-1.766-0.16-2.729-0.481c-3.532,0.16-7.063,0.321-10.595,0.642
				c-5.458,0.321-10.113,0.643-13.965,0.964c-0.161,3.371-0.161,6.581-0.161,9.631c5.137-0.481,11.236-1.123,18.46-2.087
				c8.347-0.963,12.842-1.604,13.805-1.766c0.642,0.321,0.963,1.605,1.124,3.853c0.161,1.445,0.481,2.729,0.803,3.692
				c0,0.642-0.161,0.963-0.321,1.123c-0.803,0-1.766-0.16-2.729-0.481c-4.174,0.161-8.668,0.321-13.163,0.481
				c-7.063,0.321-13.163,0.803-18.139,1.124c-0.161,4.815-0.321,9.311-0.321,13.484c0,1.444-0.321,2.568-0.963,3.37
				c8.187,2.087,16.374,3.692,24.721,4.655c11.718,1.767,21.992,2.729,30.82,2.729c0,2.087-0.963,3.05-2.729,3.05
				c-1.766,0.642-4.174,1.124-7.384,1.605c-9.792,1.604-15.41,2.729-16.694,3.37c-0.963,0.321-2.087,0.643-3.371,0.643
				c-3.532,0-9.471-2.087-18.139-6.261c-7.384-2.568-14.929-5.297-22.473-7.865c-12.521-4.174-25.844-8.187-39.97-11.718
				c-0.963,1.926-1.766,3.371-2.408,4.494c-8.508,11.719-15.41,18.3-20.868,19.905c-1.284,0-1.766-0.321-1.766-1.284
				c0.963-1.766,2.408-3.532,4.334-5.458c4.816-4.815,8.668-9.632,11.558-14.447c0.803-1.605,1.605-3.21,2.248-4.815
				c-12.681-1.927-18.942-3.211-18.942-4.014c0-0.642,0.321-1.283,0.963-2.086c1.445-1.605,2.568-2.729,3.532-3.211
				c1.766,0,7.223,1.284,16.534,3.531c1.926-5.297,2.889-9.631,2.889-13.002c-1.124-4.655-2.568-8.348-4.334-10.916
				c-1.605-1.926-3.05-3.531-4.495-4.494c-1.605-0.963-2.248-2.087-2.248-3.531c0-2.087,0.963-4.334,3.211-6.902
				c2.247-9.311,3.531-15.731,3.531-19.263c0-1.284-0.803-2.729-2.408-4.335c-2.568-1.926-5.137-4.494-7.384-7.705l0.481-0.802
				c1.766,0.642,3.853,1.604,6.261,2.729c2.889,1.284,6.26,2.568,9.952,3.531c3.853,1.124,5.939,2.89,5.939,5.298
				c0,1.604-1.124,3.853-3.21,6.581c-2.568,4.495-4.495,8.508-5.779,12.36c-1.926,3.531-2.89,6.1-2.89,7.705
				c0,1.123,1.284,2.89,3.853,5.137c2.408,2.408,4.495,4.334,6.1,5.618c2.568,2.408,4.013,4.655,4.013,6.581
				c0,4.334-1.766,9.471-5.137,15.25c-0.481,0.963-0.803,1.605-0.963,2.087c2.89,0.803,5.779,1.605,8.989,2.407
				c12.521,4.335,25.042,8.026,37.402,11.237c0.321,0.16,0.642,0.321,0.963,0.321c-0.321-2.729-0.481-7.705-0.481-14.929
				c-5.939,0.642-12.2,1.444-18.781,2.247c-6.581,1.284-10.113,1.766-10.755,1.766c-0.481,0-0.803-0.643-0.963-1.926
				c-0.481-1.605-0.803-2.729-0.963-3.692c-0.481-0.643-0.642-1.284-0.642-1.927c0.481-0.16,2.729-0.32,6.742-0.32
				c2.568,0,5.458-0.161,8.668-0.643c6.742-0.321,12.36-0.803,16.694-1.284v-9.631c-4.495,0.642-9.31,1.284-14.286,2.087
				c-5.297,1.283-8.187,1.766-8.668,1.766c-0.642,0-0.963-0.643-0.963-2.087c-0.481-1.605-0.802-2.89-1.124-3.853
				c-0.481-0.963-0.642-1.605-0.642-2.248c0.321,0,2.248-0.16,5.458-0.16c2.247,0,4.495-0.321,7.063-0.642
				c5.297-0.321,9.631-0.643,13.163-1.124V75.127c-4.976,0.803-10.273,1.605-15.731,2.568c-5.458,1.284-8.347,1.766-8.829,1.766
				c-0.482,0-0.803-0.642-0.963-2.087c-0.481-1.604-0.803-2.89-1.124-3.853c-0.481-0.803-0.642-1.444-0.642-2.087
				c0.321-0.16,2.247-0.32,5.618-0.32c2.087,0,4.495-0.321,7.063-0.643c6.1-0.321,10.916-0.803,14.607-1.444V59.074z
				 M596.188,59.877c0.16-1.123,0.321-2.247,0.481-3.21c-7.063,0.481-13.002,0.963-17.979,1.444c0,3.211-0.161,6.582-0.161,9.953
				c3.532-0.321,7.705-0.964,12.36-1.605c1.445-0.161,2.729-0.321,4.013-0.643C595.064,64.532,595.546,62.445,596.188,59.877z
				 M578.852,52.493h0.321c5.137-0.481,11.397-1.284,18.46-2.247c0.642-4.495,0.963-7.545,0.963-9.311
				c-0.642-0.642-1.284-1.123-1.766-1.766c-5.778,0.963-11.718,1.766-17.657,2.568C579.012,45.27,578.852,48.801,578.852,52.493z"/>
			<path fill="#FFFFFF" d="M756.713,52.172c0.963,0.964,2.087,1.927,3.05,2.729c0.963,0.803,1.445,1.444,1.445,1.766
				c0,0.481-0.161,0.803-0.482,0.963c-1.284,1.605-2.247,3.05-3.05,4.174c-1.445,5.137-2.408,10.434-3.05,15.892
				c0,4.815,2.568,7.384,7.705,7.545c3.853,0,6.582-0.321,8.026-1.124c1.445-0.642,2.408-1.605,2.729-2.89
				c0.642-0.803,0.963-2.568,1.124-5.297c0.321-3.211,0.481-7.063,0.642-11.397c0.321,0,0.642,0.161,0.963,0.321
				c0.642,3.531,1.444,7.384,2.568,11.397c1.284,5.137,2.247,8.668,2.568,10.434c0,3.21-4.334,4.815-12.842,4.977
				c-13.966,0-20.868-3.853-20.868-11.558c0-2.408,0.642-9.15,2.087-20.387v-0.321c-3.692,0.321-7.705,0.643-12.039,1.124
				c0.642,0.321,1.124,0.803,1.124,1.444c-0.321,0.643-0.803,2.247-1.605,4.815c-0.321,1.605-0.482,2.89-0.643,4.014
				c3.532-0.481,5.779-0.963,6.582-1.284c0.482,0,0.963,0.963,1.445,2.568c0.321,1.605,0.481,2.729,0.803,3.692l-0.642,0.481
				c-0.803-0.161-1.926-0.321-3.532-0.321c-1.926,0.16-3.853,0.481-5.939,0.803c-0.642,2.889-1.444,5.297-2.408,7.224
				c-2.568,4.976-6.1,8.187-10.594,9.792c-0.161,0.16-0.161,0.16-0.161,0c0.963,0.481,2.087,0.963,3.21,1.444
				c1.605,0.481,2.568,1.124,2.568,2.087c-0.161,1.123-0.321,2.247-0.321,3.21c8.026-0.642,17.497-1.444,28.413-2.407
				c13.484-1.284,21.029-2.087,22.313-2.248c0.802,0.321,1.284,1.766,1.444,4.334c0.161,1.767,0.481,3.211,0.803,4.335
				c0,0.642-0.161,1.123-0.321,1.284c-0.963,0-1.926-0.161-3.21-0.482c-6.903,0-13.966,0.321-21.189,0.643
				c-10.915,0.321-20.386,0.803-28.252,1.124c-0.16,12.36-0.16,24.72-0.16,36.92c0,1.124-0.642,1.766-1.605,1.766
				c-0.642-0.16-2.247-1.124-4.815-2.729c-2.568-1.605-4.977-3.05-7.384-4.014c-3.853-1.604-6.421-3.371-8.026-4.976
				c-0.642-0.321-0.963-0.803-0.963-1.766c3.853,0.642,7.866,0.802,12.2,0.802c1.926,0,2.89-2.729,3.05-8.347
				c0-7.063-0.16-12.682-0.16-17.176c-11.076,0.963-22.955,2.087-35.636,3.371c-10.594,1.604-16.534,2.247-17.657,2.247
				c-0.642,0-0.963-0.643-0.963-2.247c-0.642-1.766-0.963-3.211-1.284-4.174c-0.481-0.963-0.642-1.766-0.642-2.408
				c0.803-0.16,4.334-0.32,10.755-0.32c4.173,0,8.829-0.321,13.805-0.803c13.484-0.643,23.918-1.284,31.302-2.087
				c-0.321-3.532-0.481-5.618-0.803-6.261c-1.766,0.481-3.692,0.803-5.618,0.803l-1.284-0.803
				c9.631-3.531,15.571-9.149,17.658-16.854c-0.321,0-0.321,0-0.321,0c-2.889,0.642-5.137,1.284-6.742,1.604
				c-1.284,0.482-2.087,0.643-2.568,0.643c-0.321,0-0.803-0.803-1.445-2.568c-0.642-1.284-1.124-2.408-1.766-3.371l0.321-0.481h2.89
				c0.963,0,4.334-0.642,10.113-1.927c0.161,0,0.321,0,0.481-0.16c0-0.481,0.161-0.963,0.161-1.444c0-2.89-0.321-5.779-0.963-8.348
				c-0.963,0.161-1.927,0.321-2.729,0.481c-2.568,0.643-4.334,0.964-5.458,0.964c-0.481,0-0.802-0.481-0.963-1.605
				c-0.482-0.643-0.963-1.605-1.605-2.89c-0.321-0.642-0.481-1.123-0.481-1.444c1.124,0,6.582-0.643,16.534-2.247
				c6.902-1.124,12.842-2.408,17.979-4.014c0-0.321,0-0.963,0.161-1.605l0.803-0.32C754.145,50.086,755.269,51.049,756.713,52.172z
				 M724.93,34.033c0.642,1.766,1.124,3.211,1.605,4.174c0-0.321,0.16-0.481,0.321-0.643c2.087-3.853,3.692-7.224,4.976-10.434
				c2.729-6.902,4.174-10.755,4.174-11.558v-0.803c0.16-0.321,0.481-0.481,1.124-0.481c1.124,1.605,2.087,2.89,2.889,3.853
				c0.963,1.124,1.605,2.087,2.248,2.729c1.124,1.284,1.766,2.087,1.766,2.408c-0.161,0.642-0.642,1.444-1.605,2.407
				c-0.642,0.643-2.087,2.89-4.334,7.063c-0.321,0.642-0.643,0.963-0.963,1.284c4.013-0.481,9.792-1.444,17.336-2.89
				c6.742-1.123,11.397-2.247,13.965-3.21c2.568-0.803,4.013-1.284,4.655-1.284s1.124,0.803,1.445,2.087
				c0.963,3.21,1.766,5.137,2.408,5.778l-0.321,0.481c-2.248,0-8.989,0.803-20.226,2.408c-0.321,0.16-0.642,0.16-0.803,0.16
				c0.642,0.481,1.605,0.963,2.568,1.605c0.642,0.321,1.124,0.803,1.124,1.284c0,0.963-0.642,1.766-1.766,2.408
				c-0.803,0.642-1.926,1.444-3.531,2.407c-1.605,0.963-4.655,2.729-9.15,4.977c-2.248,1.284-3.532,1.926-3.853,1.926
				c-0.803,0-1.284-0.32-1.445-1.123c4.495-4.816,7.705-8.829,9.792-12.36c-1.124,0.16-2.087,0.321-3.05,0.481
				c-3.21,0.643-6.261,1.284-9.15,2.087c-0.321,0.321-0.642,0.481-0.963,0.481c-0.481,0-0.802-0.321-0.963-0.963
				c-0.481-0.803-0.803-1.605-1.124-2.248c-0.963,1.285-1.605,2.248-2.248,3.211c-2.889,4.174-5.618,7.384-8.187,9.311
				c-2.568,2.087-5.458,3.21-8.347,3.531c-0.321,0-0.321,0-0.321-0.321c1.766-1.604,3.853-4.173,6.1-7.544
				c1.284-1.927,2.729-4.014,4.013-6.261c-3.21,0.321-8.668,0.803-16.374,1.766c0.321,0.321,0.803,0.643,1.284,0.963
				c0.642,0.321,0.963,0.643,0.963,1.124c0,1.124-0.642,2.087-1.766,2.729c-0.963,0.643-2.086,1.605-3.531,2.568
				c-1.605,1.124-4.815,3.051-9.471,5.619c-2.248,1.283-3.532,2.086-3.853,2.247c-0.803,0-1.284-0.321-1.445-1.124
				c4.173-4.815,7.384-8.989,9.631-12.842c-0.963,0.16-1.766,0.321-2.408,0.321c-3.05,0.642-5.939,1.124-8.668,1.766
				c-0.321,0.321-0.642,0.481-0.963,0.481c-0.481,0-0.803-0.321-0.963-0.963c-0.161-0.16-0.321-0.321-0.321-0.643
				c-0.642,0.964-1.284,1.766-1.926,2.408c-3.21,4.013-6.1,6.902-8.989,8.668c-2.729,1.927-5.779,3.211-8.989,3.531
				c-0.321,0-0.482-0.16-0.482-0.642c1.927-1.444,4.334-3.853,6.903-7.063c2.247-2.729,4.334-5.618,6.421-8.668
				c2.247-3.531,4.173-6.902,5.618-10.112c3.05-6.421,4.655-10.113,4.655-10.916V20.87c0.161-0.321,0.481-0.481,1.124-0.481
				c1.124,1.605,2.087,2.89,2.89,3.853c0.802,1.284,1.605,2.087,2.247,2.729c1.124,1.283,1.766,2.086,1.766,2.407
				c-0.16,0.643-0.803,1.444-1.766,2.247c-0.642,0.643-2.087,2.729-4.495,6.582c3.371-0.481,7.866-1.284,13.484-2.248
				c6.421-0.963,10.916-1.926,13.323-2.729c2.248-0.642,3.853-1.123,4.495-1.123S724.608,32.749,724.93,34.033z M714.496,59.235
				c0.963,2.568,1.445,4.494,1.766,5.458c0,0.481-0.161,0.642-0.482,0.642c-4.495,0-9.631,0.481-15.731,1.124
				c-0.321,4.976-0.481,10.434-0.642,16.533c5.779-1.284,11.236-2.729,16.052-4.013c0,0.963-0.161,1.766-0.321,2.729
				c-0.16,0.321-0.963,0.803-2.408,1.445c-1.284,0.803-3.21,1.766-5.458,2.729c-3.371,1.766-6.742,3.211-10.113,4.334
				c-3.531,1.445-7.224,2.729-10.916,4.014c-4.655,1.604-7.544,2.568-8.829,2.889c-0.963,0.803-1.766,1.124-2.729,1.124
				c-0.642,0-1.284-0.643-1.605-2.247c-0.321-1.124-0.803-2.247-1.445-3.371c-0.963-1.766-1.605-3.05-2.248-3.692l0.482-0.642h1.926
				c0.803,0,7.544-1.124,20.065-3.532V67.582c-3.211,0.643-6.421,1.284-9.953,1.927c-2.408,0.963-4.173,1.284-5.137,1.284
				c-0.803,0-1.284-0.481-1.605-1.766c-0.643-0.963-1.124-1.927-1.605-2.729c-0.481-0.963-1.124-1.766-1.766-2.407l0.481-0.803
				c0.642,0,1.445,0,2.408-0.16c1.445,0,5.297-0.482,11.558-1.445c4.816-0.642,8.989-1.123,12.36-1.605
				c3.853-0.481,7.063-1.123,9.953-1.766l4.173-1.123C713.693,56.988,714.335,57.791,714.496,59.235z M699.246,112.368
				c0,1.927-1.445,5.458-4.013,10.434c-2.729,4.655-4.976,7.866-6.902,9.632c-1.605,2.247-3.21,3.371-5.137,3.371
				c-0.642,0-1.926-0.963-3.853-3.05c-2.408-1.927-3.692-2.89-4.013-3.05v-0.643c0.642-0.16,2.408-1.124,5.618-3.05
				c2.087-1.124,4.174-2.568,6.421-4.495c2.729-2.247,5.137-4.334,7.384-6.26c1.445-1.605,2.729-2.89,3.692-4.014L699.246,112.368z
				 M766.184,125.531l0.161,0.803c-0.643,0.963-1.445,1.926-2.568,3.21c-1.284,1.766-2.408,3.371-3.532,4.655
				c-0.642,1.284-1.445,1.766-2.408,1.766c-0.803,0-1.605-0.642-2.408-2.087c-1.124-1.123-2.247-2.729-3.371-4.815
				c-3.05-5.137-5.779-11.076-8.347-17.497c0-0.803,0.642-1.284,2.087-1.284C752.379,118.789,759.121,123.926,766.184,125.531z"/>
			<path fill="#FFFFFF" d="M866.192,87.487c0.642,0.642,1.284,1.124,2.087,1.605c2.568,2.087,3.853,3.21,3.853,3.531
				c0,0.642-0.321,1.605-0.963,2.89c-1.284,3.21-2.087,6.1-2.408,8.668c-0.321,1.605-0.642,3.531-0.803,5.458
				c0,0.32,0.161,0.32,0.161,0.32c0,0.643,0.161,1.605,0.481,2.729c0.161,2.889,0.481,4.655,1.124,4.976l-0.643,0.803
				c-0.321-0.481-1.124-0.803-2.086-0.963c-10.595,0.642-22.794,2.087-36.599,4.334c-1.124,6.1-2.087,9.149-2.89,9.149
				c-0.481,0-1.284-1.123-2.568-3.37c-1.444-1.605-2.247-2.89-2.247-3.532c0-1.926,0.481-7.063,1.284-15.41
				c0.481-7.544,0.963-15.57,1.444-23.918c0.643-10.915,0.963-22.633,0.963-34.833c0-0.963,0.321-1.444,1.284-1.444
				c0.963,0.803,1.926,1.605,3.05,2.407c0.321,0.321,0.803,0.643,1.124,0.803c0.963-0.16,2.087-0.321,3.371-0.481
				c2.729-0.321,6.261-0.963,10.434-1.926c10.594-1.927,16.213-3.211,16.855-3.692c0.16-0.16,0.321-0.321,0.642-0.481
				c0.321-0.16,0.481-0.321,0.802-0.643c0,0,0.643,0.643,1.927,1.605c0.642,0.643,1.444,1.124,2.086,1.605
				c2.408,2.087,3.692,3.21,3.692,3.531c0,0.643-0.321,1.445-0.963,2.729c-1.284,3.211-2.247,6.101-2.729,8.348
				c-0.321,1.605-0.481,3.211-0.802,5.137c0,0.321,0.16,0.321,0.16,0.321c0.161,0.642,0.321,1.444,0.481,2.568
				c0.161,2.89,0.482,4.655,1.124,5.137l-0.642,0.642c-0.321-0.481-1.124-0.803-2.087-0.963c-9.631,0.643-20.547,2.087-32.747,4.334
				c-0.161,2.408-0.321,4.655-0.321,6.902v5.458c0.803,0,1.766-0.16,2.729-0.321c2.729-0.32,6.1-0.803,10.273-1.444
				c10.273-1.605,15.892-2.729,16.534-3.211c0,0,0.161-0.16,0.482-0.32c0.321-0.321,0.642-0.481,0.963-0.643
				C864.105,85.882,864.908,86.524,866.192,87.487z M831.84,111.727c-0.16,0.963-0.321,1.926-0.321,2.729
				c5.779-0.16,11.878-0.803,18.299-1.927c4.334-0.642,7.866-1.284,10.434-1.766c0.161-1.284,0.321-3.531,0.642-6.421
				c0.481-4.494,0.803-7.063,0.803-7.544c-0.642-1.124-1.284-1.767-2.087-2.087c-0.963,0-5.618,0.481-13.965,1.444
				c-7.063,0.963-11.397,1.605-12.842,1.605C832.482,102.255,832.161,106.91,831.84,111.727z M854.153,22.797
				c0.321,0.642,1.445,1.605,3.531,3.05c0.642,0.642,1.605,1.284,2.729,1.926c0.642,0.321,0.963,0.803,0.963,1.124
				c0,1.444-0.802,2.568-2.247,3.531c-1.284,0.963-3.05,2.087-5.137,3.371c-2.247,1.445-6.742,3.853-13.163,7.224
				c-3.05,1.605-4.815,2.568-5.458,2.729c-1.284,0-1.926-0.481-2.248-1.604c10.916-8.348,17.658-15.571,20.226-21.35H854.153z
				 M860.734,62.606c0.642-4.334,0.963-6.742,0.963-7.063c-0.481-1.284-1.124-1.926-1.926-2.247c-1.124,0-5.939,0.803-14.607,2.087
				c-5.137,0.963-8.829,1.605-11.076,1.926c-0.161,3.532-0.321,8.829-0.481,15.731c5.137-0.16,10.755-0.963,16.534-2.247
				c3.853-0.803,7.224-1.445,9.792-2.087C860.092,67.262,860.413,65.175,860.734,62.606z M913.225,70.312
				c-0.161,7.224-0.321,15.57-0.321,25.202c-0.321,14.126-0.481,27.609-0.642,40.291c0,3.21-1.926,5.618-5.458,7.224
				c-0.803,0-1.445-0.803-1.766-2.408V71.114c-5.137,0.642-10.434,1.284-16.212,1.926v7.063c-0.161,3.21-0.161,6.581-0.161,9.952
				v22.152c0,1.766-0.321,3.37-0.642,4.655l-0.963,0.16c-1.284-1.445-3.05-3.05-5.137-4.815c-1.284-0.643-1.926-1.445-1.926-2.087
				c0.481-0.963,0.802-2.89,0.802-6.1c0.321-2.248,0.482-8.348,0.482-18.461c0-4.654-0.161-8.828-0.482-12.521
				c-0.321-4.174-0.963-6.902-1.605-8.508l0.803-0.642c0.481,0.642,2.568,1.605,6.1,2.568c0.642,0.32,1.124,0.481,1.605,0.642
				c5.137-0.16,9.792-0.803,13.965-1.766c1.124,0,2.247-0.16,3.371-0.481c-0.16-4.655-0.16-8.668-0.16-12.039
				c-0.161-1.284-0.321-2.729-0.642-4.174c-0.321-0.963-0.482-1.926-0.642-2.89c-4.816,0.803-9.953,1.767-15.41,2.729
				c-5.939,1.605-9.15,2.247-9.792,2.247c-0.481,0-0.803-0.642-0.963-2.247c-0.643-1.766-0.963-3.211-1.124-4.174
				c-0.642-0.963-0.803-1.605-0.803-2.247c0.482-0.161,2.568-0.321,6.1-0.321c2.408,0,5.137-0.321,8.026-0.803
				c8.668-0.803,15.41-1.605,19.905-2.568c4.976-0.642,11.236-1.444,18.941-2.729s11.879-2.087,12.681-2.248
				c0.642,0.321,1.124,1.767,1.284,4.335c0.161,1.604,0.482,3.05,0.803,4.334c0,0.642-0.161,0.963-0.321,1.123
				c-0.963,0-1.927-0.16-3.05-0.481c-3.853,0.161-7.866,0.321-11.878,0.643c-7.866,0.642-14.447,1.123-19.744,1.766h-0.482
				c0.321,0.16,0.482,0.16,0.642,0.16c4.174,0.643,6.261,1.284,6.261,1.927c0,1.284-0.161,2.407-0.321,3.21
				c-0.161,1.445-0.321,3.211-0.642,5.137c-0.161,2.568-0.321,5.298-0.321,8.187c3.531-0.642,6.581-1.123,9.149-1.766
				c4.655-0.963,7.545-1.604,8.668-1.604c1.124,0.642,2.408,1.283,4.013,1.766c0.642,0.32,1.605,0.803,2.729,1.123
				c0.963,0.321,1.605,0.803,1.605,1.445c-0.481,1.123-0.803,3.853-0.803,8.025c0,6.261-0.321,17.658-0.803,34.353
				c0,5.457-0.642,8.025-1.605,8.025c-0.963,0-4.174-1.444-9.792-4.655c-3.371-1.444-6.582-3.05-9.631-4.654
				c-0.642-0.321-0.963-0.964-0.963-1.927c4.494,0,8.989,0.321,13.483,0.963c0.643,0,0.963-0.32,0.963-1.123
				c0-11.397,0-22.634,0.321-33.55l-1.124-0.963C925.425,69.348,919.967,69.669,913.225,70.312z"/>
			<path fill="#FFFFFF" d="M1086.913,33.712c0.161,1.766,0.481,3.211,0.803,4.334c0,0.643-0.161,1.124-0.321,1.284
				c-0.963,0-1.926-0.16-3.21-0.481c-5.458,0.161-10.916,0.481-16.534,0.964c-8.668,0.642-15.892,1.123-21.991,1.766
				c-0.321,2.889-0.482,5.618-0.482,8.347v0.321c16.855-2.408,25.684-4.014,26.486-4.815c0.161,0.32,1.445,1.444,3.853,3.05
				c2.889,1.766,4.655,2.729,5.137,2.889c-0.321,0.643-1.605,4.174-4.173,10.595c-2.568,5.618-4.013,8.669-4.495,9.311
				c-0.642,0-2.086,0-4.334-0.16h-6.26c-1.926,0.32-7.224,0.802-16.052,1.604c0,2.568,0,4.977,0,7.224
				c15.089-1.926,23.115-3.05,24.078-3.531c0-0.16,0.321-0.321,0.643-0.481c0.321-0.321,0.481-0.481,0.802-0.643
				c0.161,0,0.963,0.643,2.248,1.766c0.642,0.643,1.444,1.124,2.247,1.605c2.729,2.248,4.174,3.531,4.174,3.853
				c0,0.803-0.481,2.087-1.445,3.692c-0.803,1.926-1.445,3.853-1.926,5.458c0.803,0,1.445-0.161,2.087-0.321
				c13.805-1.927,21.35-2.89,22.794-3.211c0.642,0.321,1.124,1.766,1.284,4.334c0.161,1.767,0.481,3.211,0.963,4.495
				c0,0.642-0.161,0.963-0.321,1.124c-0.963,0-2.086-0.161-3.21-0.482c-7.063,0.161-14.286,0.482-21.67,0.964
				c-1.284,0.16-2.568,0.16-3.853,0.16c-0.321,1.927-0.803,4.174-1.124,6.421c0,0.643,0,0.963,0,1.284
				c0.642,0,0.963-0.16,1.284-0.16c0.642,0.321,0.963,1.444,1.124,3.691c0.161,1.605,0.321,2.89,0.642,3.853
				c0,0.482-0.161,0.803-0.161,0.964c-0.963,0-1.926-0.161-2.889-0.321c-3.853,0-8.026,0.16-12.2,0.481
				c-5.779,0.321-10.755,0.803-14.929,1.124c0,9.31,0.161,18.299,0.481,27.288c0,0.643-0.161,1.124-0.481,1.124
				c-1.605,0-3.371-0.643-5.297-1.766c-2.568-1.284-6.26-2.89-10.916-4.815c-5.458-2.248-9.15-3.853-10.916-4.816l-0.16-1.123
				c0.642,0.321,1.444,0.321,2.408,0.321c6.1,0,11.718,0.32,16.855,0.802c0.642-0.16,1.124-0.802,1.124-1.766
				c-0.161-4.976-0.161-9.792-0.161-14.607c-5.939,0.643-12.2,1.605-18.941,2.729c-6.1,1.283-9.471,1.926-10.113,1.926
				s-0.963-0.643-0.963-2.087c-0.642-1.605-0.963-2.89-1.124-3.853c-0.481-0.963-0.642-1.605-0.642-2.247
				c0.481,0,2.568-0.161,6.26-0.161c2.568,0,5.297-0.32,8.187-0.642c7.063-0.481,12.842-0.963,17.336-1.605
				c-0.161-3.21-0.161-6.421-0.161-9.631c-10.594,1.284-21.831,2.729-33.709,4.334c-10.916,2.247-17.016,3.21-18.139,3.21
				c-0.642,0-0.963-0.642-0.963-2.247c-0.642-1.766-0.963-3.21-1.284-4.334c-0.481-0.963-0.642-1.605-0.642-2.247
				c0.802-0.321,4.494-0.481,10.915-0.481c4.334,0,8.989-0.481,14.126-1.124c12.36-0.643,22.313-1.444,29.697-2.408v-8.668
				c-0.321,0.16-0.642,0.16-0.802,0.16c-17.658,2.248-26.968,3.211-28.252,3.211c-0.321,0-1.284-1.766-2.729-5.297
				c0-0.321,0-0.482,0.161-0.643c3.05-0.481,7.223-0.963,12.36-1.444s11.397-1.284,19.102-2.247h0.161v-7.545
				c-1.926,0.16-3.853,0.321-5.779,0.481c-8.668,1.284-15.57,2.408-20.707,3.531c-0.803-0.642-2.408-3.371-4.816-8.347
				c-2.087-5.137-3.21-8.026-3.532-8.829c0.482-0.321,1.766-1.284,3.853-2.89c1.927-1.604,3.05-2.568,3.371-2.889
				c5.618,0,13.484-0.803,23.437-2.729c1.284-0.16,2.729-0.321,4.013-0.481v-1.123c0-2.248-0.16-4.816-0.16-7.705
				c-8.347,1.283-17.336,2.729-26.808,4.654c-8.347,2.248-13.002,3.211-13.965,3.211c-0.481,0-0.802-0.643-0.963-2.087
				c-0.482-1.927-0.803-3.371-1.124-4.334c-0.643-0.963-0.803-1.605-0.803-2.247c0.642-0.321,3.531-0.482,8.508-0.482
				c3.371-0.16,7.063-0.481,11.076-1.123c9.953-0.803,17.979-1.766,23.757-2.89c-0.16-1.926-0.321-3.853-0.481-5.939
				c0-0.642-0.321-2.087-0.803-4.334c-0.803-2.89-1.444-4.815-1.926-5.778l0.642-0.803c1.766,0.642,3.532,1.123,5.137,1.444
				c0.963,0.321,2.087,0.643,3.692,0.963c1.605,0.321,2.568,0.964,2.568,1.605c0,1.284-0.321,3.211-0.643,5.779
				c-0.16,1.926-0.321,4.013-0.321,5.938c6.26-0.802,13.645-1.926,21.992-3.37c10.594-1.927,16.373-2.89,17.497-3.211
				C1086.271,29.699,1086.753,31.144,1086.913,33.712z M1038.596,56.186c-0.321,0.16-0.642,0.16-0.963,0.16
				c-13.484,2.087-21.51,3.371-24.078,4.014c0.16,0.963,0.642,2.729,1.444,4.976c0.642,1.605,1.284,3.05,1.766,4.334
				c4.816,0,11.237-0.481,19.584-1.604c0.642,0,1.445-0.161,2.408-0.161C1038.596,64.051,1038.596,60.038,1038.596,56.186z
				 M1045.177,55.543c0,4.014,0,7.866,0.161,11.558c6.26-0.642,13.163-1.604,20.868-2.89c0.321-0.642,0.963-1.926,1.926-4.013
				c0.963-1.926,1.445-3.371,1.445-4.494c-0.321-0.643-0.642-0.964-0.963-1.284C1061.551,54.42,1053.685,54.901,1045.177,55.543z
				 M1068.453,87.006c-0.642-1.284-1.284-2.087-2.087-2.408c-1.766,0-8.829,0.643-21.028,1.927c0,2.889,0,5.778,0.161,8.347
				c6.421-0.642,13.644-1.284,21.992-2.247C1068.132,89.413,1068.453,87.487,1068.453,87.006z M1066.366,99.045
				c-7.865,0.481-14.768,0.963-20.707,1.444c0,3.211,0,6.421,0.16,9.311c4.334-0.321,9.471-0.963,15.41-1.766
				c1.284-0.161,2.568-0.321,3.692-0.481C1065.243,105.947,1065.724,103.058,1066.366,99.045z"/>
			<path fill="#FFFFFF" d="M1228.336,99.687c-0.803,0.161-1.445,0.321-1.926,0.321c-4.173,10.113-7.705,17.176-10.594,21.189
				c-5.458,9.631-11.718,14.446-18.942,14.446c-0.642,0-1.124-0.16-1.124-0.802c3.853-3.371,7.063-6.742,9.631-9.953
				c3.05-3.853,5.779-8.508,8.347-13.805c1.284-3.05,2.568-6.1,3.531-9.149c-3.692,0.963-7.224,1.766-10.594,2.729
				c-3.692,1.605-6.1,2.247-7.063,2.247c-0.963,0-1.605-0.803-2.087-2.407c-0.963-2.408-1.766-4.495-2.408-6.261l0.642-0.803
				c0.481,0.321,1.124,0.321,2.087,0.321c5.458,0,12.681-0.803,21.349-2.568c1.284-4.977,1.926-9.792,1.926-14.607v-0.321
				c-0.321,0.16-0.481,0.321-0.481,0.321c-7.866,6.26-17.497,9.631-28.894,10.273c-1.605,0-2.248-0.481-2.248-1.605
				c12.04-4.174,22.152-9.792,30.179-17.176c1.284-1.124,2.729-2.408,4.013-3.853c-1.926-0.963-3.853-1.766-5.779-2.568
				c-3.853-1.284-6.742-2.408-8.989-3.371c-1.766-0.321-2.889-0.643-3.371-0.963c-2.248,2.247-4.334,3.853-6.582,4.655
				c1.284,1.604,2.408,2.729,3.371,3.37c0.963,0.964,1.605,1.605,1.766,2.087c0,1.927-0.803,2.89-2.408,3.211
				c-1.766,0.642-3.853,1.766-6.1,3.21c-3.692,2.89-7.224,5.619-10.434,8.348c-0.803,0-1.124-0.16-1.124-0.803
				c0.803-1.284,3.05-6.261,6.742-14.768l-0.963-0.964c-1.284,0.321-7.544,1.927-18.781,4.815c0.481,0.321,0.963,0.482,1.445,0.482
				c1.605,0.803,2.889,1.123,3.532,1.123c1.926,0.643,2.889,2.408,2.889,5.618c-0.481,22.313-0.642,39.328-0.642,51.207
				c-0.642,5.137-1.445,7.705-2.729,7.705c-0.802,0-3.692-1.444-8.829-4.334c-2.89-1.284-6.1-2.89-9.631-4.815
				c-0.321,0-0.481-0.482-0.481-1.445c0-0.32,0.161-0.642,0.481-0.642c6.421,0.321,10.113,0.481,10.755,0.803
				c2.408,0,3.853-13.323,4.334-39.971c-4.655,6.742-9.15,12.36-13.324,16.534c-5.458,7.705-11.397,11.558-18.139,11.558
				c-1.605,0-2.408-0.481-2.729-1.605c5.779-3.21,11.397-8.668,17.176-16.373c5.137-6.261,10.113-13.323,14.929-21.35
				c-1.124-1.284-2.248-2.408-3.532-3.371c-0.642,0.321-1.284,0.481-1.926,0.481c-5.297,1.605-10.273,3.371-14.929,4.977
				c-2.568,1.605-4.334,2.247-5.137,2.247c-1.605,0-2.408-0.803-2.729-2.407c-0.642-1.605-1.124-3.051-1.445-4.495
				c-0.321-1.124-0.642-1.927-1.284-2.408l0.963-1.444c0.802,0.321,1.766,0.321,2.889,0.321c5.618-0.161,12.842-1.284,21.51-3.371
				c2.568-0.481,4.815-0.963,7.063-1.444c-1.444-0.482-2.729-1.124-3.853-2.087c-4.494-2.729-8.668-5.779-12.199-9.15
				c0-0.963,0.642-1.444,1.926-1.444c4.495,2.247,9.15,3.853,13.966,4.815c5.779-8.989,8.829-14.929,9.31-17.817
				c-4.495,1.123-9.952,2.729-16.373,4.815c-8.026,3.531-12.842,5.137-14.447,5.137c-0.642,0-1.124-0.321-1.605-1.284
				c-0.963-1.284-1.605-2.408-2.248-3.531c-0.642-0.964-1.445-1.767-2.086-2.729l0.321-1.124c1.605,0,4.334-0.32,7.866-0.963
				c3.692-0.481,7.224-1.284,10.594-2.247c9.631-2.087,16.694-3.853,20.868-5.297c0.642-0.964,0.963-2.087,0.963-3.692l1.284-0.963
				c1.284,1.605,3.853,3.371,7.384,5.137c1.444,0.642,2.247,1.444,2.408,2.407c0,1.124-1.124,2.408-3.371,4.014
				c-1.445,1.926-4.495,5.297-8.989,10.434c-3.371,4.013-5.939,6.902-7.544,8.508c2.087,0.481,4.174,0.803,6.421,0.963l0.161,0.643
				c-0.482,0.642-1.124,1.284-1.926,2.247c-0.481,0.643-0.803,1.284-1.124,1.605c0.321,0,0.643,0,0.963-0.161
				c7.705-1.444,11.878-2.729,12.521-4.013c0.963-0.803,1.605-1.284,1.926-1.284c0.321,0.481,0.963,1.284,1.927,2.247
				c0.963-1.123,2.086-2.568,3.371-4.334c2.248-2.89,4.816-7.063,7.544-12.682c1.927-4.173,3.532-8.187,4.655-12.359
				c1.284-4.495,1.926-7.705,1.926-9.471c0-0.482-0.161-0.964-0.481-1.285c0.481-0.32,0.803-0.481,0.803-0.802
				c0.963,0.963,2.247,2.087,3.853,3.05c1.124,0.803,2.408,1.444,3.692,1.926c1.605,0.643,2.568,1.284,2.568,1.766
				c0,0.643-0.481,1.605-1.445,2.89c-0.481,0.803-1.766,3.531-4.013,8.348c-0.481,0.963-0.963,1.766-1.284,2.407
				c5.297-0.481,10.755-1.284,16.534-2.568c10.916-2.407,17.176-3.853,18.46-4.494c0.642,0,1.124,0.32,1.124,0.642
				c0,0.643,0.161,1.605,0.321,2.89c0.321,3.211,0.642,5.137,1.284,5.618l-0.642,0.803c-0.481-0.481-1.284-0.803-2.248-1.124
				c-3.692,0.321-7.544,0.803-11.397,1.284c0.321,0.321,0.481,0.643,0.803,0.643c0.642,0.642,1.605,1.124,2.568,1.766
				c1.284,0.481,1.926,1.124,1.926,1.927c0,1.123-2.568,4.654-7.705,10.434c-1.605,2.568-3.371,4.977-4.976,6.902
				c2.247,1.284,4.494,2.247,6.581,2.89c5.297,2.087,10.916,4.013,16.694,5.939c11.397,3.37,17.336,5.297,17.818,5.618
				c0,1.123-0.643,1.766-1.766,1.766c-1.284,0.481-3.05,0.803-5.297,1.123c-1.766,0.482-4.013,0.964-6.902,1.285
				c-1.766,0.642-3.05,0.802-4.013,0.802c-0.643,0.321-1.445,0.321-2.408,0.321c-2.568,0-4.815-1.284-6.742-4.013
				c-3.05-2.568-7.384-5.618-13.002-9.15c-1.605-0.802-3.05-1.604-4.334-2.407c-2.89,3.21-5.618,5.939-8.187,7.865
				c0.963,0.803,1.926,1.605,3.21,2.408c1.605,1.123,2.89,1.926,4.013,2.568c1.124,0.642,1.766,1.123,1.766,1.444
				c0,1.124-0.803,3.692-2.248,7.545c3.853-0.643,7.866-1.445,12.2-2.408c4.174-1.124,6.582-1.766,7.384-1.766
				c0.482,0.321,1.284,1.284,2.568,2.729c0.963,0.964,1.766,1.927,2.568,2.568c0.643,0.481,0.963,0.964,1.284,1.605
				c0,0.963-0.481,2.247-1.124,3.692c-0.642,1.766-1.445,4.013-2.408,6.902c-1.605,5.618-3.05,10.434-4.334,14.286
				c-1.766,5.137-3.692,10.755-5.779,17.016c-1.284,3.853-2.408,5.939-3.05,5.939c-0.802,0-2.408-1.284-4.655-3.531
				c-1.605-1.445-3.21-2.729-4.655-4.014c-2.889-2.568-5.939-5.137-8.829-8.026c-0.321-0.642-0.321-1.123-0.321-1.766
				c2.568,0.964,5.137,1.927,7.866,2.568c3.853,1.124,6.26,1.766,7.544,1.927c0.642,0,1.766-2.729,3.371-8.508
				c2.568-9.311,4.334-17.497,5.458-24.239l-0.803-0.963C1241.338,97.439,1236.362,98.242,1228.336,99.687z M1209.876,55.543
				c4.173,1.927,8.989,4.014,14.126,6.582c1.124,0.803,2.247,1.444,3.371,1.926c0.963-1.284,1.926-2.729,2.889-4.013
				c4.495-7.545,6.742-12.2,7.063-13.806c-7.705,1.285-15.731,2.729-24.239,4.495C1211.963,52.654,1210.839,54.259,1209.876,55.543z
				"/>
			<path fill="#FFFFFF" d="M1317.268,104.663c-3.371,14.769-7.384,24.399-12.199,29.055c-0.963,0.642-2.248,0.803-3.532,0.803
				l-0.321-0.481c9.149-18.621,13.805-48.479,13.805-89.411c-0.161-1.284-0.642-2.729-1.284-4.334l0.963-0.481
				c0.803,0.642,3.211,1.444,7.063,2.729c1.444,0.321,2.247,0.642,2.408,1.123c5.779-1.926,10.916-4.173,15.571-7.063
				c10.273-5.779,15.41-9.792,15.731-12.199l1.124,0.16c0,0.803,0.321,1.926,0.642,3.531c0.161,0.803,0.482,1.927,0.803,3.211
				c1.124,2.568,1.766,3.853,1.766,4.173c0,0.964-0.321,1.284-0.963,1.284c-4.495,1.284-10.755,3.692-19.102,6.902
				c-7.866,2.568-13.163,4.014-16.053,4.335v0.16c-0.321,2.729-0.642,7.063-1.284,13.163c0,0.642-0.16,1.123-0.16,1.444
				c3.853-0.481,8.026-1.284,12.36-2.247c9.631-1.766,15.089-2.89,16.373-3.371c0.642,0,1.766,0.643,3.05,1.766
				c2.087,1.605,3.692,2.89,4.816,3.692c1.124,0.481,1.766,1.123,1.766,1.766c0,1.284-0.481,2.568-1.445,3.853
				c-1.124,3.371-2.408,7.384-3.692,11.879c-0.481,2.086-0.963,3.691-1.284,4.815c0.321,0.481,0.642,1.124,0.642,1.766
				c0.963,2.89,1.605,4.815,1.926,5.939c0,0.481-0.321,0.642-0.642,0.642c-4.655,0-10.434,0.321-17.176,0.964
				c-4.174,0.481-9.15,1.123-14.768,1.926c-2.248,0.643-3.853,0.963-4.816,0.963c-0.321,0-0.642,0-0.642-0.16
				C1318.231,99.848,1317.75,102.416,1317.268,104.663z M1347.446,80.264c1.444-7.063,2.247-11.718,2.247-13.966
				c-0.642-0.642-1.284-1.123-1.766-1.766c-4.334,0.964-8.829,2.087-13.645,3.05c-4.495,1.124-8.668,2.248-12.521,3.211
				c-0.643,6.742-1.124,12.682-1.766,17.818c1.926-0.161,4.655-0.482,8.026-0.803c4.655-0.482,8.507-0.964,11.558-1.284
				c2.247-0.321,4.495-0.481,6.421-0.803C1346.162,84.598,1346.644,82.832,1347.446,80.264z M1412.458,24.563
				c0.963,1.766,2.087,3.21,3.05,4.334c0.802,0.963,1.605,1.766,2.247,2.408c0.481,0.642,0.803,1.123,0.803,1.766
				c0,1.766-1.766,3.05-5.137,3.853c-3.05,1.604-7.545,3.21-13.323,4.815c-8.989,2.729-15.25,4.494-18.781,5.297
				c-0.321,2.568-0.642,5.619-1.124,9.471c-0.321,4.816-0.802,9.311-1.124,13.484c14.447-1.444,30.018-3.692,46.712-6.581
				c0.642,0,1.124,0.32,1.444,0.642c0,0.643,0.321,1.927,0.963,4.174c0.321,1.605,0.963,2.729,1.605,3.371l-0.642,0.803
				c-0.321,0-0.642-0.161-0.802-0.161c-8.508,0.321-17.818,1.284-28.092,2.568c0.321,0,0.481,0.161,0.803,0.161
				c1.926,0.642,3.531,0.963,5.137,0.963c1.124,0.16,1.766,0.642,1.766,1.284c-0.642,1.284-1.124,6.421-1.766,15.57
				c-0.481,13.163-0.642,28.895-0.642,47.354c0,0.963-0.321,1.605-0.963,1.926c-1.284,0-2.408-0.32-3.21-0.642
				c-1.124-0.643-2.248-1.284-3.371-1.766c-2.248-1.284-3.692-1.766-4.334-2.087v-0.803c1.124,0,2.086-1.444,3.05-4.334
				c1.284-4.977,1.926-19.424,1.926-43.181c0-8.347-0.482-13.002-1.284-14.126c-6.1,0.963-12.521,1.926-18.942,2.89
				c0,0.803-0.16,1.444-0.16,2.087c-0.643,8.668-1.605,15.892-2.89,21.991c-2.729,13.323-6.582,21.991-11.397,25.844
				c-2.89,3.05-6.26,4.816-10.113,5.298l-0.643-0.481c12.521-12.842,18.781-34.994,18.781-66.457c0-6.902-0.481-13.483-1.284-19.744
				c-0.321-4.013-0.803-6.581-1.444-7.544l0.642-0.964c1.124,0.803,2.568,1.445,4.174,1.927c1.605,0.642,3.05,0.963,4.655,1.284
				c1.766,0.321,2.729,0.963,2.889,1.605c11.879-5.298,21.992-11.397,30.339-18.3H1412.458z"/>
		</g>
	</g>
	<g>
		<g>
			<path fill="#FFFFFF" d="M68.656,199.969H43.521v61.244h-6.195v-61.244H12.242v-4.76h56.414V199.969z"/>
			<path fill="#FFFFFF" d="M116.103,242.718H82.809l-7.555,18.495h-6.498l27.753-66.004h5.893l27.753,66.004h-6.447L116.103,242.718
				z M84.723,237.957h29.416l-14.708-35.948L84.723,237.957z"/>
			<path fill="#FFFFFF" d="M148.491,261.213h-6.195v-66.004h6.195V261.213z"/>
			<path fill="#FFFFFF" d="M233.06,242.718h-33.294l-7.555,18.495h-6.498l27.753-66.004h5.893l27.753,66.004h-6.447L233.06,242.718z
				 M201.68,237.957h29.416l-14.708-35.948L201.68,237.957z"/>
			<path fill="#FFFFFF" d="M285.293,233.741h-21.306v27.472h-6.246v-66.004h23.825c3.828,0,7.278,0.424,10.351,1.27
				c3.072,0.847,5.691,2.093,7.857,3.74s3.828,3.68,4.986,6.097c1.159,2.418,1.738,5.198,1.738,8.341
				c0,2.177-0.37,4.225-1.108,6.143c-0.739,1.92-1.78,3.649-3.123,5.191c-1.343,1.541-2.947,2.871-4.81,3.989
				c-1.864,1.118-3.921,1.979-6.17,2.583l18.334,28.062v0.589h-6.599L285.293,233.741z M263.987,228.981h18.989
				c2.854,0,5.364-0.393,7.53-1.179c2.166-0.785,3.971-1.836,5.415-3.15c1.443-1.314,2.526-2.84,3.249-4.578
				c0.722-1.737,1.083-3.543,1.083-5.418c0-2.267-0.403-4.306-1.209-6.119c-0.806-1.813-2.007-3.354-3.602-4.624
				c-1.595-1.27-3.551-2.244-5.868-2.924s-4.987-1.021-8.009-1.021h-17.579V228.981z"/>
			<path fill="#FFFFFF" d="M375.302,240.632c-0.403,3.354-1.276,6.362-2.619,9.021c-1.343,2.659-3.148,4.911-5.415,6.754
				c-2.267,1.844-4.986,3.257-8.16,4.239c-3.173,0.981-6.775,1.473-10.804,1.473c-4.164,0-7.942-0.71-11.333-2.13
				c-3.392-1.421-6.296-3.438-8.714-6.052c-2.418-2.614-4.281-5.75-5.591-9.407c-1.31-3.656-1.965-7.706-1.965-12.148v-8.296
				c0-4.442,0.655-8.5,1.965-12.172c1.31-3.672,3.181-6.807,5.616-9.406c2.435-2.599,5.381-4.616,8.84-6.052
				c3.458-1.436,7.337-2.153,11.635-2.153c3.895,0,7.404,0.483,10.527,1.45c3.123,0.968,5.8,2.38,8.034,4.239
				c2.233,1.858,4.03,4.125,5.39,6.8c1.36,2.674,2.224,5.704,2.594,9.089h-6.246c-0.37-2.659-1.041-5.039-2.015-7.14
				c-0.975-2.101-2.292-3.86-3.954-5.281s-3.677-2.509-6.044-3.265c-2.367-0.755-5.129-1.133-8.286-1.133
				c-3.425,0-6.481,0.597-9.167,1.791c-2.687,1.193-4.97,2.878-6.85,5.054c-1.881,2.177-3.316,4.799-4.307,7.865
				c-0.991,3.068-1.486,6.476-1.486,10.223v8.387c0,3.626,0.47,6.974,1.41,10.041c0.94,3.067,2.317,5.712,4.13,7.933
				c1.813,2.222,4.046,3.952,6.699,5.19c2.652,1.24,5.691,1.859,9.117,1.859c6.48,0,11.366-1.397,14.657-4.193
				c3.291-2.795,5.322-6.988,6.095-12.58H375.302z"/>
			<path fill="#FFFFFF" d="M444.711,261.213h-6.246v-31.642h-41.907v31.642h-6.195v-66.004h6.195v29.647h41.907v-29.647h6.246
				V261.213z"/>
			<path fill="#FFFFFF" d="M470.903,261.213h-6.195v-66.004h6.195V261.213z"/>
			<path fill="#FFFFFF" d="M539.103,199.969h-25.134v61.244h-6.195v-61.244h-25.084v-4.76h56.414V199.969z"/>
			<path fill="#FFFFFF" d="M591.437,229.571h-34.301v26.927h39.439v4.715H550.94v-66.004h45.382v4.76h-39.187v24.888h34.301V229.571
				z"/>
			<path fill="#FFFFFF" d="M661.55,240.632c-0.403,3.354-1.276,6.362-2.619,9.021c-1.343,2.659-3.148,4.911-5.415,6.754
				c-2.267,1.844-4.986,3.257-8.16,4.239c-3.173,0.981-6.775,1.473-10.804,1.473c-4.164,0-7.942-0.71-11.333-2.13
				c-3.392-1.421-6.296-3.438-8.714-6.052c-2.418-2.614-4.281-5.75-5.591-9.407c-1.31-3.656-1.965-7.706-1.965-12.148v-8.296
				c0-4.442,0.655-8.5,1.965-12.172c1.31-3.672,3.181-6.807,5.616-9.406c2.435-2.599,5.381-4.616,8.84-6.052
				c3.458-1.436,7.337-2.153,11.635-2.153c3.895,0,7.404,0.483,10.527,1.45c3.123,0.968,5.8,2.38,8.034,4.239
				c2.233,1.858,4.03,4.125,5.39,6.8c1.36,2.674,2.224,5.704,2.594,9.089h-6.246c-0.37-2.659-1.041-5.039-2.015-7.14
				c-0.975-2.101-2.292-3.86-3.954-5.281s-3.677-2.509-6.044-3.265c-2.367-0.755-5.129-1.133-8.286-1.133
				c-3.425,0-6.481,0.597-9.167,1.791c-2.687,1.193-4.97,2.878-6.85,5.054c-1.881,2.177-3.316,4.799-4.307,7.865
				c-0.991,3.068-1.486,6.476-1.486,10.223v8.387c0,3.626,0.47,6.974,1.41,10.041c0.94,3.067,2.317,5.712,4.13,7.933
				c1.813,2.222,4.046,3.952,6.699,5.19c2.652,1.24,5.691,1.859,9.117,1.859c6.48,0,11.366-1.397,14.657-4.193
				c3.291-2.795,5.322-6.988,6.095-12.58H661.55z"/>
			<path fill="#FFFFFF" d="M724.915,199.969H699.78v61.244h-6.195v-61.244h-25.084v-4.76h56.414V199.969z"/>
			<path fill="#FFFFFF" d="M770.901,225.219c-1.31-1.42-2.477-2.795-3.5-4.125c-1.025-1.329-1.897-2.636-2.619-3.921
				c-0.723-1.284-1.277-2.576-1.663-3.876c-0.386-1.299-0.579-2.629-0.579-3.989c0-2.297,0.395-4.375,1.184-6.233
				c0.789-1.858,1.922-3.438,3.4-4.737c1.478-1.299,3.249-2.296,5.314-2.991c2.065-0.695,4.39-1.043,6.976-1.043
				c2.451,0,4.651,0.34,6.599,1.02c1.947,0.681,3.593,1.609,4.936,2.788c1.343,1.179,2.367,2.555,3.073,4.125
				c0.705,1.572,1.058,3.234,1.058,4.987c0,1.511-0.286,2.924-0.856,4.238c-0.571,1.314-1.318,2.546-2.241,3.694
				c-0.924,1.149-1.973,2.214-3.148,3.196c-1.176,0.982-2.367,1.896-3.576,2.742l-6.598,4.579l20.147,21.124
				c1.411-2.055,2.526-4.344,3.35-6.867c0.823-2.523,1.234-5.266,1.234-8.229h5.591c0,3.869-0.546,7.367-1.637,10.495
				c-1.091,3.128-2.695,5.961-4.81,8.5l10.023,10.517h-7.253l-6.346-6.618c-2.653,2.357-5.717,4.2-9.192,5.53
				c-3.476,1.329-7.145,1.994-11.006,1.994c-3.526,0-6.699-0.423-9.52-1.269s-5.213-2.048-7.178-3.604
				c-1.964-1.556-3.468-3.422-4.508-5.599c-1.042-2.176-1.562-4.593-1.562-7.253c0-1.964,0.36-3.792,1.083-5.485
				c0.722-1.691,1.72-3.286,2.997-4.782c1.276-1.496,2.778-2.938,4.508-4.329c1.729-1.39,3.602-2.766,5.616-4.125L770.901,225.219z
				 M778.759,257.541c3.055,0,6.019-0.582,8.89-1.745s5.448-2.818,7.732-4.964l-20.5-21.397l-0.705-0.68l-2.317,1.587
				c-2.183,1.603-3.921,3.09-5.213,4.465c-1.293,1.376-2.284,2.652-2.972,3.831c-0.688,1.179-1.142,2.244-1.36,3.195
				c-0.219,0.952-0.328,1.807-0.328,2.562c0,1.753,0.335,3.423,1.008,5.01c0.671,1.586,1.704,2.984,3.098,4.192
				c1.393,1.21,3.139,2.169,5.238,2.879C773.428,257.187,775.904,257.541,778.759,257.541z M768.584,209.126
				c0,1.995,0.587,4.065,1.763,6.211c1.175,2.146,2.854,4.428,5.037,6.845l6.598-4.533c2.149-1.39,3.912-2.916,5.289-4.578
				c1.376-1.662,2.065-3.611,2.065-5.848c0-1.088-0.219-2.131-0.655-3.128c-0.437-0.998-1.075-1.882-1.914-2.652
				c-0.84-0.771-1.881-1.383-3.123-1.836c-1.243-0.453-2.669-0.68-4.281-0.68c-1.78,0-3.342,0.271-4.684,0.815
				c-1.344,0.544-2.468,1.285-3.375,2.222s-1.586,2.018-2.04,3.241C768.811,206.429,768.584,207.736,768.584,209.126z"/>
			<path fill="#FFFFFF" d="M887.959,242.718h-33.294l-7.555,18.495h-6.498l27.753-66.004h5.893l27.753,66.004h-6.447
				L887.959,242.718z M856.579,237.957h29.416l-14.708-35.948L856.579,237.957z"/>
			<path fill="#FFFFFF" d="M954.295,244.984c0-1.813-0.327-3.423-0.982-4.828s-1.763-2.689-3.325-3.854
				c-1.561-1.163-3.619-2.229-6.17-3.195c-2.552-0.968-5.742-1.935-9.57-2.901c-3.694-0.937-7.019-1.957-9.973-3.061
				c-2.955-1.103-5.465-2.395-7.53-3.876c-2.065-1.48-3.66-3.188-4.785-5.122c-1.125-1.934-1.688-4.2-1.688-6.8
				c0-2.539,0.604-4.851,1.813-6.936c1.208-2.086,2.904-3.876,5.087-5.372c2.183-1.496,4.785-2.659,7.807-3.491
				c3.022-0.83,6.33-1.246,9.923-1.246c3.861,0,7.345,0.514,10.452,1.541c3.105,1.028,5.75,2.434,7.933,4.216
				c2.183,1.784,3.861,3.869,5.037,6.256c1.175,2.388,1.763,4.957,1.763,7.707h-6.246c0-2.146-0.42-4.133-1.259-5.962
				c-0.84-1.828-2.065-3.406-3.677-4.737c-1.612-1.329-3.593-2.372-5.943-3.128c-2.351-0.755-5.037-1.133-8.059-1.133
				s-5.684,0.325-7.983,0.975c-2.3,0.65-4.214,1.526-5.742,2.629c-1.528,1.104-2.687,2.396-3.476,3.876
				c-0.789,1.481-1.184,3.053-1.184,4.715c0,1.571,0.328,3.022,0.982,4.352c0.655,1.33,1.754,2.562,3.299,3.695
				c1.544,1.133,3.577,2.191,6.095,3.173c2.519,0.982,5.624,1.912,9.318,2.788c3.861,0.968,7.304,2.024,10.326,3.173
				c3.022,1.149,5.574,2.501,7.656,4.058c2.082,1.557,3.66,3.348,4.735,5.372c1.074,2.024,1.611,4.367,1.611,7.026
				c0,2.689-0.629,5.1-1.889,7.23s-3.005,3.937-5.238,5.417c-2.233,1.481-4.895,2.614-7.983,3.399
				c-3.09,0.786-6.447,1.179-10.074,1.179c-2.184,0-4.375-0.166-6.573-0.498c-2.2-0.333-4.315-0.839-6.347-1.519
				c-2.032-0.681-3.929-1.549-5.692-2.606c-1.763-1.058-3.291-2.319-4.583-3.786c-1.293-1.465-2.317-3.143-3.072-5.031
				c-0.756-1.889-1.133-3.996-1.133-6.324h6.195c0,2.781,0.637,5.131,1.914,7.05c1.276,1.919,2.921,3.468,4.936,4.646
				s4.281,2.032,6.8,2.561c2.519,0.529,5.037,0.794,7.556,0.794c2.854,0,5.447-0.295,7.782-0.884
				c2.333-0.59,4.332-1.429,5.994-2.517s2.938-2.395,3.828-3.921C953.85,248.559,954.295,246.858,954.295,244.984z"/>
			<path fill="#FFFFFF" d="M1015.393,244.984c0-1.813-0.327-3.423-0.982-4.828s-1.763-2.689-3.325-3.854
				c-1.561-1.163-3.619-2.229-6.17-3.195c-2.552-0.968-5.742-1.935-9.57-2.901c-3.694-0.937-7.019-1.957-9.973-3.061
				c-2.955-1.103-5.465-2.395-7.53-3.876c-2.065-1.48-3.66-3.188-4.785-5.122c-1.125-1.934-1.688-4.2-1.688-6.8
				c0-2.539,0.604-4.851,1.813-6.936c1.208-2.086,2.904-3.876,5.087-5.372c2.183-1.496,4.785-2.659,7.807-3.491
				c3.022-0.83,6.33-1.246,9.923-1.246c3.861,0,7.345,0.514,10.452,1.541c3.105,1.028,5.75,2.434,7.933,4.216
				c2.183,1.784,3.861,3.869,5.037,6.256c1.175,2.388,1.763,4.957,1.763,7.707h-6.246c0-2.146-0.42-4.133-1.259-5.962
				c-0.84-1.828-2.065-3.406-3.677-4.737c-1.612-1.329-3.593-2.372-5.943-3.128c-2.351-0.755-5.037-1.133-8.059-1.133
				s-5.684,0.325-7.983,0.975c-2.3,0.65-4.214,1.526-5.742,2.629c-1.528,1.104-2.687,2.396-3.476,3.876
				c-0.789,1.481-1.184,3.053-1.184,4.715c0,1.571,0.328,3.022,0.982,4.352c0.655,1.33,1.754,2.562,3.299,3.695
				c1.544,1.133,3.577,2.191,6.095,3.173c2.519,0.982,5.624,1.912,9.318,2.788c3.861,0.968,7.304,2.024,10.326,3.173
				c3.022,1.149,5.574,2.501,7.656,4.058c2.082,1.557,3.66,3.348,4.735,5.372c1.074,2.024,1.611,4.367,1.611,7.026
				c0,2.689-0.629,5.1-1.889,7.23s-3.005,3.937-5.238,5.417c-2.233,1.481-4.895,2.614-7.983,3.399
				c-3.09,0.786-6.447,1.179-10.074,1.179c-2.184,0-4.375-0.166-6.573-0.498c-2.2-0.333-4.315-0.839-6.347-1.519
				c-2.032-0.681-3.929-1.549-5.692-2.606c-1.763-1.058-3.291-2.319-4.583-3.786c-1.293-1.465-2.317-3.143-3.072-5.031
				c-0.756-1.889-1.133-3.996-1.133-6.324h6.195c0,2.781,0.637,5.131,1.914,7.05c1.276,1.919,2.921,3.468,4.936,4.646
				s4.281,2.032,6.8,2.561c2.519,0.529,5.037,0.794,7.556,0.794c2.854,0,5.447-0.295,7.782-0.884
				c2.333-0.59,4.332-1.429,5.994-2.517s2.938-2.395,3.828-3.921C1014.948,248.559,1015.393,246.858,1015.393,244.984z"/>
			<path fill="#FFFFFF" d="M1089.184,231.792c0,4.624-0.672,8.803-2.015,12.534c-1.343,3.733-3.249,6.914-5.717,9.543
				s-5.465,4.662-8.991,6.097c-3.526,1.436-7.455,2.153-11.787,2.153c-4.299,0-8.202-0.718-11.711-2.153
				c-3.509-1.435-6.522-3.468-9.041-6.097s-4.466-5.81-5.843-9.543c-1.377-3.731-2.065-7.91-2.065-12.534v-7.071
				c0-4.624,0.688-8.81,2.065-12.558c1.376-3.747,3.307-6.942,5.792-9.587c2.484-2.645,5.481-4.685,8.991-6.12
				c3.509-1.436,7.412-2.153,11.711-2.153c4.332,0,8.26,0.718,11.786,2.153s6.54,3.476,9.042,6.12
				c2.501,2.645,4.424,5.84,5.767,9.587c1.343,3.748,2.015,7.934,2.015,12.558V231.792z M1082.988,224.63
				c0-3.898-0.503-7.419-1.511-10.563c-1.008-3.143-2.468-5.81-4.382-8.001s-4.265-3.883-7.052-5.077
				c-2.788-1.193-5.943-1.791-9.469-1.791c-3.459,0-6.573,0.598-9.344,1.791c-2.77,1.194-5.121,2.886-7.051,5.077
				c-1.932,2.191-3.409,4.858-4.433,8.001c-1.025,3.144-1.536,6.664-1.536,10.563v7.162c0,3.93,0.52,7.465,1.561,10.608
				c1.041,3.144,2.535,5.817,4.483,8.023c1.947,2.206,4.307,3.898,7.077,5.077c2.77,1.179,5.884,1.768,9.343,1.768
				c3.559,0,6.725-0.589,9.495-1.768c2.771-1.179,5.104-2.871,7.001-5.077c1.896-2.206,3.341-4.88,4.332-8.023
				c0.99-3.144,1.486-6.679,1.486-10.608V224.63z"/>
			<path fill="#FFFFFF" d="M1156.729,240.632c-0.403,3.354-1.276,6.362-2.619,9.021c-1.343,2.659-3.148,4.911-5.415,6.754
				c-2.267,1.844-4.986,3.257-8.16,4.239c-3.173,0.981-6.775,1.473-10.804,1.473c-4.164,0-7.942-0.71-11.333-2.13
				c-3.392-1.421-6.296-3.438-8.714-6.052c-2.418-2.614-4.281-5.75-5.591-9.407c-1.31-3.656-1.965-7.706-1.965-12.148v-8.296
				c0-4.442,0.655-8.5,1.965-12.172c1.31-3.672,3.181-6.807,5.616-9.406c2.435-2.599,5.381-4.616,8.84-6.052
				c3.458-1.436,7.337-2.153,11.635-2.153c3.895,0,7.404,0.483,10.527,1.45c3.123,0.968,5.8,2.38,8.034,4.239
				c2.233,1.858,4.03,4.125,5.39,6.8c1.36,2.674,2.224,5.704,2.594,9.089h-6.246c-0.37-2.659-1.041-5.039-2.015-7.14
				c-0.975-2.101-2.292-3.86-3.954-5.281s-3.677-2.509-6.044-3.265c-2.367-0.755-5.129-1.133-8.286-1.133
				c-3.425,0-6.481,0.597-9.167,1.791c-2.687,1.193-4.97,2.878-6.85,5.054c-1.881,2.177-3.316,4.799-4.307,7.865
				c-0.991,3.068-1.486,6.476-1.486,10.223v8.387c0,3.626,0.47,6.974,1.41,10.041c0.94,3.067,2.317,5.712,4.13,7.933
				c1.813,2.222,4.046,3.952,6.699,5.19c2.652,1.24,5.691,1.859,9.117,1.859c6.48,0,11.366-1.397,14.657-4.193
				c3.291-2.795,5.322-6.988,6.095-12.58H1156.729z"/>
			<path fill="#FFFFFF" d="M1179.344,261.213h-6.195v-66.004h6.195V261.213z"/>
			<path fill="#FFFFFF" d="M1239.737,242.718h-33.294l-7.555,18.495h-6.498l27.753-66.004h5.893l27.753,66.004h-6.447
				L1239.737,242.718z M1208.357,237.957h29.416l-14.708-35.948L1208.357,237.957z"/>
			<path fill="#FFFFFF" d="M1307.836,199.969h-25.134v61.244h-6.195v-61.244h-25.084v-4.76h56.414V199.969z"/>
			<path fill="#FFFFFF" d="M1360.169,229.571h-34.301v26.927h39.439v4.715h-45.634v-66.004h45.382v4.76h-39.187v24.888h34.301
				V229.571z"/>
			<path fill="#FFFFFF" d="M1419.857,244.984c0-1.813-0.327-3.423-0.982-4.828s-1.763-2.689-3.325-3.854
				c-1.561-1.163-3.619-2.229-6.17-3.195c-2.552-0.968-5.742-1.935-9.57-2.901c-3.694-0.937-7.019-1.957-9.973-3.061
				c-2.955-1.103-5.465-2.395-7.53-3.876c-2.065-1.48-3.66-3.188-4.785-5.122c-1.125-1.934-1.688-4.2-1.688-6.8
				c0-2.539,0.604-4.851,1.813-6.936c1.208-2.086,2.904-3.876,5.087-5.372c2.183-1.496,4.785-2.659,7.807-3.491
				c3.022-0.83,6.33-1.246,9.923-1.246c3.861,0,7.345,0.514,10.452,1.541c3.105,1.028,5.75,2.434,7.933,4.216
				c2.183,1.784,3.861,3.869,5.037,6.256c1.175,2.388,1.763,4.957,1.763,7.707h-6.246c0-2.146-0.42-4.133-1.259-5.962
				c-0.84-1.828-2.065-3.406-3.677-4.737c-1.612-1.329-3.593-2.372-5.943-3.128c-2.351-0.755-5.037-1.133-8.059-1.133
				s-5.684,0.325-7.983,0.975c-2.3,0.65-4.214,1.526-5.742,2.629c-1.528,1.104-2.687,2.396-3.476,3.876
				c-0.789,1.481-1.184,3.053-1.184,4.715c0,1.571,0.328,3.022,0.982,4.352c0.655,1.33,1.754,2.562,3.299,3.695
				c1.544,1.133,3.577,2.191,6.095,3.173c2.519,0.982,5.624,1.912,9.318,2.788c3.861,0.968,7.304,2.024,10.326,3.173
				c3.022,1.149,5.574,2.501,7.656,4.058c2.082,1.557,3.66,3.348,4.735,5.372c1.074,2.024,1.611,4.367,1.611,7.026
				c0,2.689-0.629,5.1-1.889,7.23s-3.005,3.937-5.238,5.417c-2.233,1.481-4.895,2.614-7.983,3.399
				c-3.09,0.786-6.447,1.179-10.074,1.179c-2.184,0-4.375-0.166-6.573-0.498c-2.2-0.333-4.315-0.839-6.347-1.519
				c-2.032-0.681-3.929-1.549-5.692-2.606c-1.763-1.058-3.291-2.319-4.583-3.786c-1.293-1.465-2.317-3.143-3.072-5.031
				c-0.756-1.889-1.133-3.996-1.133-6.324h6.195c0,2.781,0.637,5.131,1.914,7.05c1.276,1.919,2.921,3.468,4.936,4.646
				s4.281,2.032,6.8,2.561c2.519,0.529,5.037,0.794,7.556,0.794c2.854,0,5.447-0.295,7.782-0.884
				c2.333-0.59,4.332-1.429,5.994-2.517s2.938-2.395,3.828-3.921C1419.412,248.559,1419.857,246.858,1419.857,244.984z"/>
		</g>
	</g>
</g>
</svg>
