<svg id="Layer_1" data-name="Layer 1" xmlns="http://www.w3.org/2000/svg" viewBox="0 0 321.48 34.45"><path d="M34,15.78c-1.08,5.33-2.62,9.76-5.07,13.36,1.83,4.28,3.25,3.84,3.31-1.88a10,10,0,0,0,3.13,2.31c-.36,7.86-6.16,8.36-9.21,3A21.1,21.1,0,0,1,22,35.83a12.85,12.85,0,0,0-2.81-3.17,18.11,18.11,0,0,0,5.26-4.35A78.12,78.12,0,0,1,22,12.87H2V9.55h8.18V8.19H4.1V5h6.05V2.46h4.06V5H20.3V8.19H14.21V9.55h7.63c-.1-2.37-.18-4.75-.18-7.09H25.8c0,2.38,0,4.75.11,7.09h4.57a21.3,21.3,0,0,0-4.14-4.32l2.88-2.16a18.22,18.22,0,0,1,4.36,4.18l-2.95,2.3h4.14v3.32H26.09a98.33,98.33,0,0,0,1.33,10.65A37,37,0,0,0,30,14.88ZM15.62,30.18a34.41,34.41,0,0,1,4,3.85l-3.38,1.73a39.3,39.3,0,0,0-3.93-4l3.1-1.55H7.91l3.39,1.15a26.39,26.39,0,0,1-6.09,4.9,21.54,21.54,0,0,0-3-2.38,19,19,0,0,0,5.43-3.67H2.51V27.52H7.3v-1.3H3.45V23.74H7.3V22.51H4V14.09h16.3v8.42H16.91v1.23h4v2.48h-4v1.3h4.54v2.66ZM7.41,17.37h2.95V16H7.41Zm0,3.16h2.95V19.24H7.41Zm3.31,3.21h2.74V22.51H10.72Zm0,3.78h2.74v-1.3H10.72ZM16.8,16H13.71v1.34H16.8Zm0,3.21H13.71v1.29H16.8Z" transform="translate(-1.97 -2.03)" style="fill:#fff"/><path d="M70.59,9.27H63.1a44.17,44.17,0,0,1,6.33,5.57L66.16,16.9h1.51V31.51c-.21,5.67-5,3.83-10.15,4.25a13.37,13.37,0,0,0-1-3.64c2.52-.17,6.08,1,6.48-.68V28.85C57.7,30,52.37,31.08,48.2,31.94l-1.26-3.78c3-.39,7.45-1,12.13-1.76a56.57,56.57,0,0,0-11.3-2.92L49,20.93A53.21,53.21,0,0,1,61.3,23.88l-1.12,2.34L63,25.79V20.42H46.9C47,25.59,46.81,31.94,43,36.48A15.23,15.23,0,0,0,39.45,34c4.28-5.11,3-11.4,3.24-17.06H65.4A23.83,23.83,0,0,0,63.64,15c-17.57.68-19.69.72-21.24,1.26-.21-.83-.86-2.81-1.29-3.92C42.63,12,44.35,10.6,46,9.27H38.69V5.52H50A34.59,34.59,0,0,0,53.06,2l4.35,1.66c-.54.61-1.11,1.22-1.73,1.83H70.59ZM60.11,11.79c-.75-.58-1.47-1.16-2.16-1.66l1.44-.86H51.72c-1.22,1-2.41,2-3.6,2.84Z" transform="translate(-1.97 -2.03)" style="fill:#fff"/><path d="M79.59,19.27a24.38,24.38,0,0,0-5.8-3.6l2.34-3.13a24.2,24.2,0,0,1,6,3.28ZM83.05,24C81.68,27.88,80,32,78.4,35.54L74.51,33.2a112.38,112.38,0,0,0,5.12-11.55ZM81.25,9.88A23.94,23.94,0,0,0,75.49,6l2.41-3.1a25.47,25.47,0,0,1,5.9,3.49Zm26.27,12h-6.94l2.3.44c-.4.68-.79,1.33-1.15,1.9h4v3.21H97.16V29H107V32.2H97.16v3.88H92.94V32.2h-10V29h10V27.41H84.81V24.2h3.81a12.31,12.31,0,0,0-.82-2l1.54-.36H82.87V18.59H92.94V17.11h-7.3V14h7.3V12.51H84.56V3.58H106v8.93H97.16V14H105v3.16H97.16v1.48h10.36ZM90.68,6.67H88.3v2.7h2.38ZM97.62,24.2c.36-.75.72-1.62,1-2.34H91.79a16.75,16.75,0,0,1,.9,2.34ZM93.88,9.37h2.48V6.67H93.88Zm5.65,0h2.56V6.67H99.53Z" transform="translate(-1.97 -2.03)" style="fill:#fff"/><path d="M121.24,15a45.43,45.43,0,0,1-2.81,13.06c6,5.1,17.09,3.17,25.06,3.39A13.91,13.91,0,0,0,142,35.4c-7.63-.19-19.72,1.23-25.26-3.85a15.85,15.85,0,0,1-4,4.5,13.57,13.57,0,0,0-3.1-2.81,14.37,14.37,0,0,0,4.28-4.75,26.8,26.8,0,0,1-3.16-7l3.13-1a18.44,18.44,0,0,0,1.76,4.18,32.5,32.5,0,0,0,1.41-6.38h-5.76c1.44-2.66,3.27-6.51,4.78-10.11h-5.32V4.44h11.08c-1.36,3.24-3.06,7-4.57,10.12A11.33,11.33,0,0,1,121.24,15Zm7.56-6.52h-6.12V5.27h6.12V2.57h4v2.7h7.88v4.82h2v3.28h-2v4.79h-7.88v1.72h8.24V23h-8.24v1.76h9.43v3.39h-9.43v2.45h-4V28.13h-8V24.74h8V23h-6.51v-3.1h6.51V18.16h-6.3V14.92h6.3V13.37h-8.1V10.09h8.1Zm4,0v1.58H137V8.51ZM137,13.37h-4.14v1.55H137Z" transform="translate(-1.97 -2.03)" style="fill:#fff"/><path d="M179.2,7.61H173a21.24,21.24,0,0,1,1.87,2.09l-3,2.09h2.44v6.8c-.08,1.13,0,1.35,1,1.26,1.25-.27.63-1.77.87-3.31A9.24,9.24,0,0,0,178.91,18c-.08,2.9-.48,5.31-3.56,5.22-2.76.13-5.26-.1-5.08-3.89L168.87,22c-.65-.39-1.55-.83-2.52-1.37a6.55,6.55,0,0,1-2,1.91h.46V24.6H179V28h-9.5a57.71,57.71,0,0,1,9.18,4.6l-3.1,2.92a58.17,58.17,0,0,0-9.07-5L169.37,28h-4.61v8.13h-4.17V28H146.41V24.6h14.18V22.51h.5a9.15,9.15,0,0,0-1.4-1.11v.18c-4.43.61-9,1.18-12.53,1.65l-.47-3.38c1.37-.14,3.06-.33,4.83-.54V14.92h-4.47V12h9a31.71,31.71,0,0,0-2.77-3.28l1.37-1.08h-2.41a22.92,22.92,0,0,1-3.57,3.74,24.15,24.15,0,0,0-2.88-2.95,17.37,17.37,0,0,0,5.4-6.26L155,3.29c-.18.36-.39.76-.61,1.12h7.88v3.2H157A23,23,0,0,1,159.15,10l-2.38,2h2.85v2.95h-4.25v4l4.14-.54.11,2.73A8.71,8.71,0,0,0,163.07,19c-1-.51-2-1-2.95-1.41l1.51-2.37c.79.32,1.66.72,2.56,1.12a16,16,0,0,0,0-1.7h-3.38v-2.8h10.87a23.78,23.78,0,0,0-2.81-3.28l1.34-.9h-2.81a20.35,20.35,0,0,1-3.17,3.74A29.68,29.68,0,0,0,161,8.8a16,16,0,0,0,4.9-6.66l3.85,1c-.18.43-.36.82-.54,1.26h10ZM159.08,29.5a20.1,20.1,0,0,1-9.9,6.26,20,20,0,0,0-2.85-3.53c3.6-.72,7.31-2.23,9.25-4Zm8.71-13.68a11.76,11.76,0,0,1-.18,2c1,.5,1.94,1,2.66,1.4V14.59h-2.48Z" transform="translate(-1.97 -2.03)" style="fill:#fff"/><path d="M187.16,21h8V32.55h-8v2.24h-3.78v-27h3a38.14,38.14,0,0,0,1-5.29l4.75.4c-.57,1.69-1.25,3.45-1.9,4.89h4.53V18.62h-7.59ZM191,11.35h-3.81V15H191Zm-3.81,13.21V29h4.17v-4.4ZM207.5,8v3.2h6.8V26.76c.15,3.63-2.1,4.11-5.4,4a10.88,10.88,0,0,0-1.08-3.67c1.2-.14,2.35.51,2.52-.43V15.06H207.5v21h-4v-21h-2.66V30.54H197V11.21h6.55V8h-7.78V4.12H215.2V8Z" transform="translate(-1.97 -2.03)" style="fill:#fff"/><path d="M251.31,26.08h-3.75v6.26h-4.35V30.86h-6.48c.51,5.59-3.09,5.29-8.28,5.33a13.64,13.64,0,0,0-1.4-3.38c2.83-.22,5.85,1.25,5.32-2H221.43V27.77h10.94V26.08H218.12V22.8h14.25V21.25H221.72V18.37h10.65V16.79h-9.75V9.66h9.75V8.19H219V4.8h13.42V2.46h4.36V4.8h13.75V8.19H236.73V9.66H247v7.13H236.73v1.58h10.83V22.8h3.75Zm-18.94-12V12.36h-5.65v1.73Zm4.36-1.73v1.73h5.83V12.36Zm0,10.44h6.48V21.25h-6.48Zm6.48,3.28h-6.48v1.69h6.48Z" transform="translate(-1.97 -2.03)" style="fill:#fff"/><path d="M284.86,9.63a17.6,17.6,0,0,1-3.6,5.25A27.47,27.47,0,0,0,287.88,17a16.93,16.93,0,0,0-2.7,3.64,25.64,25.64,0,0,1-7.34-3.1,28.82,28.82,0,0,1-7.34,3,13.6,13.6,0,0,0-1-1.51,42.55,42.55,0,0,1-1.77,6l-2.88-1.33a48.17,48.17,0,0,0,1.16-5h-1.91V31.44c.19,4.4-2.77,4.47-6.62,4.5a14.32,14.32,0,0,0-1.23-4.07c1.69-.21,3.47.65,3.82-.5V23.66a21.65,21.65,0,0,1-4.5,6.66,24.3,24.3,0,0,0-1.95-4.14,22.61,22.61,0,0,0,5.12-7.41h-4.5V15h8.24a51.93,51.93,0,0,0-7-3.5l2.7-2.73c.87.32,1.87.72,2.85,1.15a22,22,0,0,0,2.26-2.27h-8.64V4.08h11.63l.65-.14,2.73,1.73a27.07,27.07,0,0,1-5.25,5.94,21.39,21.39,0,0,1,2.63,1.58L265.31,15a7.36,7.36,0,0,0,2.31-.19l2.59.87-.15.83a21.38,21.38,0,0,0,4.4-1.66,20.4,20.4,0,0,1-2.56-3,21.08,21.08,0,0,1-1.62,1.55A32.51,32.51,0,0,0,266.79,11a21.44,21.44,0,0,0,6.87-8.57l4,1.08a25.29,25.29,0,0,1-1.33,2.52H287V9.63Zm1.69,12.88c-.94,9.31-.6,14.21-9.07,13.11a9.31,9.31,0,0,0-1.15-4c4.7.55,4.86.37,5.61-5.58h-4.17c-1.23,4.28-3.78,7.77-9.47,10a12.22,12.22,0,0,0-2.48-3.31c4.32-1.58,6.4-3.89,7.52-6.69H269V22.51h5.26a29.53,29.53,0,0,0,.36-3.2h4.28c-.1,1.08-.21,2.16-.36,3.2ZM274.74,9.63a14.41,14.41,0,0,0,3,3.06,11.07,11.07,0,0,0,2.38-3.06Z" transform="translate(-1.97 -2.03)" style="fill:#fff"/><path d="M295.91,23.48c-.28,4.5-1,9.44-3.06,12.78a20.06,20.06,0,0,0-3.49-2.7c3.85-7.54,2-19.61,2.45-27.86a61.25,61.25,0,0,0,12.24-2.55l2.73,3.63a59.31,59.31,0,0,1-10.72,2.13v2.55h9.25v12Zm.15-8.2v4.39h5.11V15.28Zm27.39,3.31h-3.28V35.83h-4.24V18.59h-3.75c-.14,5.72-1.36,13.1-6.4,17.6a20.23,20.23,0,0,0-3.35-2.92c7.71-7.38,4.83-18.55,5.4-27.53a58.66,58.66,0,0,0,12.38-2.85L323,6.6A59.45,59.45,0,0,1,312.22,9v5.47h11.23Z" transform="translate(-1.97 -2.03)" style="fill:#fff"/></svg>