<?xml version="1.0" encoding="utf-8"?>
<!-- Generator: Adobe Illustrator 24.3.0, SVG Export Plug-In . SVG Version: 6.00 Build 0)  -->
<svg version="1.1" id="Layer_1" xmlns="http://www.w3.org/2000/svg" xmlns:xlink="http://www.w3.org/1999/xlink" x="0px" y="0px"
	 viewBox="0 0 960 240" style="enable-background:new 0 0 960 240;" xml:space="preserve">
<style type="text/css">
	.st0{fill:#FDA33B;}
</style>
<g>
	<path class="st0" d="M115.05,113.28c-4.47,7.42-12.75,13.95-24.84,19.58l26.18,58.96H75.57l-20.2-52.77H44.24l-7.42,52.77H-0.7
		l20-143.27h49.06c17.32,0,30.54,3.47,39.68,10.41c9.14,6.94,13.71,16.39,13.71,28.35C121.75,97.2,119.52,105.86,115.05,113.28z
		 M47.74,113.07h12.78c7.83,0,13.53-2.3,17.11-6.91c3.57-4.6,5.36-10.13,5.36-16.59c0-4.95-1.58-8.59-4.74-10.93
		c-3.16-2.34-7.97-3.5-14.43-3.5H53.1L47.74,113.07z"/>
	<path class="st0" d="M198.85,191.82l-2.27-29.27h-37.31l-10.1,29.27H110l61.64-143.27h45.35l21.44,143.27H198.85z M168.54,135.33
		h26.18l-4.74-62.05L168.54,135.33z"/>
	<path class="st0" d="M365.41,62.56l-20,19.38c-3.58-3.02-7.22-5.32-10.93-6.91c-3.71-1.58-7.83-2.37-12.37-2.37
		c-8.66,0-15.7,3.44-21.13,10.31c-5.43,6.87-9.35,15.15-11.75,24.84c-2.41,9.69-3.61,19.07-3.61,28.14
		c0,10.31,1.99,17.97,5.98,22.99c3.98,5.02,9.69,7.52,17.11,7.52c4.95,0,9.59-1.03,13.92-3.09s9.1-5.02,14.33-8.86l14.22,22.06
		c-6.18,5.64-13.4,10.24-21.65,13.81c-8.25,3.57-17.25,5.36-27.01,5.36c-11.13,0-20.89-2.3-29.27-6.91
		c-8.38-4.6-14.88-11.37-19.48-20.31c-4.61-8.93-6.91-19.72-6.91-32.36c0-14.57,2.58-28.83,7.73-42.78
		c5.15-13.95,13.33-25.53,24.53-34.74c11.2-9.21,25.39-13.81,42.57-13.81C340.26,44.84,354.83,50.75,365.41,62.56z"/>
	<path class="st0" d="M352.22,141.31l3.71-28.04h66.79l-3.71,28.04H352.22z"/>
	<path class="st0" d="M552.39,62.56l-20,19.38c-3.57-3.02-7.21-5.32-10.93-6.91c-3.71-1.58-7.83-2.37-12.37-2.37
		c-8.66,0-15.7,3.44-21.13,10.31c-5.43,6.87-9.35,15.15-11.75,24.84c-2.41,9.69-3.61,19.07-3.61,28.14
		c0,10.31,1.99,17.97,5.98,22.99c3.98,5.02,9.69,7.52,17.11,7.52c4.95,0,9.59-1.03,13.91-3.09c4.33-2.06,9.1-5.02,14.33-8.86
		l14.22,22.06c-6.19,5.64-13.4,10.24-21.65,13.81s-17.25,5.36-27,5.36c-11.13,0-20.89-2.3-29.27-6.91
		c-8.38-4.6-14.88-11.37-19.48-20.31c-4.61-8.93-6.91-19.72-6.91-32.36c0-14.57,2.58-28.83,7.73-42.78
		c5.15-13.95,13.33-25.53,24.53-34.74c11.2-9.21,25.39-13.81,42.57-13.81C527.24,44.84,541.8,50.75,552.39,62.56z"/>
	<path class="st0" d="M664.12,60.19c9.62,10.24,14.43,24.71,14.43,43.39c0,14.57-2.44,28.83-7.32,42.77
		c-4.88,13.95-13.02,25.67-24.43,35.15c-11.41,9.48-26.18,14.22-44.32,14.22c-17.87,0-31.61-5.19-41.23-15.56
		c-9.62-10.38-14.43-24.84-14.43-43.39c0-14.56,2.44-28.82,7.32-42.77c4.88-13.95,12.99-25.63,24.33-35.05
		c11.34-9.41,26.08-14.12,44.22-14.12C640.69,44.84,654.5,49.96,664.12,60.19z M599.08,83.69c-5.15,7.63-8.73,16.56-10.72,26.8
		c-1.99,10.24-2.99,19.96-2.99,29.17c0,10.03,1.65,17.28,4.95,21.75c3.3,4.47,8.31,6.7,15.05,6.7c8.79,0,15.77-3.78,20.92-11.34
		c5.15-7.56,8.69-16.46,10.62-26.7c1.92-10.24,2.89-20.1,2.89-29.58c0-10.03-1.62-17.25-4.84-21.65c-3.23-4.4-8.21-6.6-14.95-6.6
		C611.21,72.25,604.23,76.07,599.08,83.69z"/>
	<path class="st0" d="M804.09,60.19c9.62,10.24,14.43,24.71,14.43,43.39c0,14.57-2.44,28.83-7.32,42.77
		c-4.88,13.95-13.02,25.67-24.43,35.15c-11.41,9.48-26.18,14.22-44.32,14.22c-17.87,0-31.61-5.19-41.23-15.56
		c-9.62-10.38-14.43-24.84-14.43-43.39c0-14.56,2.44-28.82,7.32-42.77c4.88-13.95,12.99-25.63,24.33-35.05
		c11.34-9.41,26.08-14.12,44.22-14.12C780.66,44.84,794.47,49.96,804.09,60.19z M739.05,83.69c-5.15,7.63-8.73,16.56-10.72,26.8
		c-1.99,10.24-2.99,19.96-2.99,29.17c0,10.03,1.65,17.28,4.95,21.75c3.3,4.47,8.31,6.7,15.05,6.7c8.79,0,15.77-3.78,20.92-11.34
		c5.15-7.56,8.69-16.46,10.62-26.7c1.92-10.24,2.89-20.1,2.89-29.58c0-10.03-1.62-17.25-4.84-21.65c-3.23-4.4-8.21-6.6-14.95-6.6
		C751.18,72.25,744.2,76.07,739.05,83.69z"/>
	<path class="st0" d="M934.78,191.82h-47.41L865.52,80.09c0.41,7.01,0.62,14.36,0.62,22.06c0,14.57-1.03,29-3.09,43.29l-6.6,46.38
		h-32.98l20-143.27h46.79l22.47,111.73c-0.55-7.56-0.83-15.6-0.83-24.12c0-12.09,0.89-24.67,2.68-37.73l7.21-49.89h32.98
		L934.78,191.82z"/>
</g>
</svg>
